<svg width="640" height="400" class="ggpbi-visual" role="img" aria-label="Chart" style="pointer-events: none; outline: none;" tabindex="0" xmlns="http://www.w3.org/2000/svg"><defs><clipPath id="ggpbi-clip-panel-14"><rect x="0" y="0" width="501" height="353"></rect></clipPath></defs><g transform="translate(52,11)"><rect class="ggpbi-panel" width="501" height="353" fill="#EBEBEB"></rect><line class="ggpbi-grid-minor" x1="0" x2="501" y1="285.25971780172273" y2="285.25971780172273" stroke="#ffffff" stroke-width="0.25"></line><line class="ggpbi-grid-minor" x1="0" x2="501" y1="181.6485776958431" y2="181.6485776958431" stroke="#ffffff" stroke-width="0.25"></line><line class="ggpbi-grid-minor" x1="0" x2="501" y1="78.03743758996356" y2="78.03743758996356" stroke="#ffffff" stroke-width="0.25"></line><line class="ggpbi-grid-minor" y1="0" y2="353" x1="79.18428926416463" x2="79.18428926416463" stroke="#ffffff" stroke-width="0.25"></line><line class="ggpbi-grid-minor" y1="0" y2="353" x1="178.4001170527548" x2="178.4001170527548" stroke="#ffffff" stroke-width="0.25"></line><line class="ggpbi-grid-minor" y1="0" y2="353" x1="277.615944841345" x2="277.615944841345" stroke="#ffffff" stroke-width="0.25"></line><line class="ggpbi-grid-minor" y1="0" y2="353" x1="376.8317726299352" x2="376.8317726299352" stroke="#ffffff" stroke-width="0.25"></line><line class="ggpbi-grid" x1="0" x2="501" y1="337.06528785466253" y2="337.06528785466253" stroke="#ffffff" stroke-width="0.5"></line><line class="ggpbi-grid" x1="0" x2="501" y1="233.45414774878293" y2="233.45414774878293" stroke="#ffffff" stroke-width="0.5"></line><line class="ggpbi-grid" x1="0" x2="501" y1="129.8430076429033" y2="129.8430076429033" stroke="#ffffff" stroke-width="0.5"></line><line class="ggpbi-grid" x1="0" x2="501" y1="26.231867537023692" y2="26.231867537023692" stroke="#ffffff" stroke-width="0.5"></line><line class="ggpbi-grid" y1="0" y2="353" x1="29.576375369869528" x2="29.576375369869528" stroke="#ffffff" stroke-width="0.5"></line><line class="ggpbi-grid" y1="0" y2="353" x1="128.79220315845973" x2="128.79220315845973" stroke="#ffffff" stroke-width="0.5"></line><line class="ggpbi-grid" y1="0" y2="353" x1="228.00803094704995" x2="228.00803094704995" stroke="#ffffff" stroke-width="0.5"></line><line class="ggpbi-grid" y1="0" y2="353" x1="327.22385873564014" x2="327.22385873564014" stroke="#ffffff" stroke-width="0.5"></line><line class="ggpbi-grid" y1="0" y2="353" x1="426.4396865242303" x2="426.4396865242303" stroke="#ffffff" stroke-width="0.5"></line><g class="ggpbi-geom-clip" clip-path="url(#ggpbi-clip-panel-14)"><g class="ggpbi-layer-density" role="list" aria-label="Data points"><path class="ggpbi-density-area" d="M22.773,336.843L23.207,336.817L23.641,336.788L24.076,336.756L24.51,336.721L24.945,336.682L25.379,336.64L25.813,336.593L26.248,336.542L26.682,336.486L27.116,336.425L27.551,336.357L27.985,336.284L28.419,336.204L28.854,336.117L29.288,336.023L29.723,335.92L30.157,335.808L30.591,335.687L31.026,335.557L31.46,335.415L31.894,335.262L32.329,335.098L32.763,334.92L33.197,334.729L33.632,334.524L34.066,334.304L34.501,334.068L34.935,333.815L35.369,333.545L35.804,333.257L36.238,332.949L36.672,332.621L37.107,332.272L37.541,331.901L37.976,331.507L38.41,331.089L38.844,330.647L39.279,330.179L39.713,329.685L40.147,329.163L40.582,328.613L41.016,328.035L41.45,327.426L41.885,326.788L42.319,326.118L42.754,325.416L43.188,324.681L43.622,323.914L44.057,323.113L44.491,322.278L44.925,321.409L45.36,320.505L45.794,319.566L46.228,318.593L46.663,317.584L47.097,316.54L47.532,315.461L47.966,314.348L48.4,313.2L48.835,312.018L49.269,310.803L49.703,309.555L50.138,308.275L50.572,306.964L51.006,305.622L51.441,304.251L51.875,302.852L52.31,301.426L52.744,299.974L53.178,298.498L53.613,296.999L54.047,295.479L54.481,293.94L54.916,292.383L55.35,290.809L55.784,289.222L56.219,287.622L56.653,286.011L57.088,284.392L57.522,282.767L57.956,281.137L58.391,279.505L58.825,277.871L59.259,276.239L59.694,274.611L60.128,272.987L60.562,271.37L60.997,269.762L61.431,268.164L61.866,266.577L62.3,265.005L62.734,263.446L63.169,261.905L63.603,260.38L64.037,258.873L64.472,257.386L64.906,255.92L65.341,254.474L65.775,253.049L66.209,251.646L66.644,250.266L67.078,248.907L67.512,247.572L67.947,246.258L68.381,244.967L68.815,243.697L69.25,242.448L69.684,241.221L70.119,240.013L70.553,238.825L70.987,237.655L71.422,236.503L71.856,235.367L72.29,234.247L72.725,233.141L73.159,232.049L73.593,230.969L74.028,229.899L74.462,228.84L74.897,227.789L75.331,226.745L75.765,225.708L76.2,224.676L76.634,223.648L77.068,222.623L77.503,221.6L77.937,220.578L78.371,219.556L78.806,218.533L79.24,217.509L79.675,216.482L80.109,215.453L80.543,214.42L80.978,213.382L81.412,212.341L81.846,211.294L82.281,210.242L82.715,209.184L83.149,208.12L83.584,207.049L84.018,205.972L84.453,204.888L84.887,203.798L85.321,202.7L85.756,201.594L86.19,200.481L86.624,199.361L87.059,198.232L87.493,197.095L87.927,195.95L88.362,194.795L88.796,193.632L89.231,192.459L89.665,191.277L90.099,190.084L90.534,188.88L90.968,187.665L91.402,186.439L91.837,185.199L92.271,183.947L92.705,182.681L93.14,181.4L93.574,180.104L94.009,178.792L94.443,177.463L94.877,176.117L95.312,174.752L95.746,173.368L96.18,171.963L96.615,170.538L97.049,169.091L97.484,167.621L97.918,166.127L98.352,164.61L98.787,163.067L99.221,161.499L99.655,159.904L100.09,158.282L100.524,156.632L100.958,154.954L101.393,153.247L101.827,151.511L102.262,149.745L102.696,147.948L103.13,146.121L103.565,144.263L103.999,142.374L104.433,140.454L104.868,138.502L105.302,136.519L105.736,134.504L106.171,132.457L106.605,130.379L107.04,128.27L107.474,126.13L107.908,123.959L108.343,121.757L108.777,119.526L109.211,117.264L109.646,114.974L110.08,112.656L110.514,110.311L110.949,107.938L111.383,105.541L111.818,103.118L112.252,100.673L112.686,98.205L113.121,95.717L113.555,93.21L113.989,90.686L114.424,88.147L114.858,85.595L115.292,83.032L115.727,80.46L116.161,77.883L116.596,75.303L117.03,72.722L117.464,70.145L117.899,67.575L118.333,65.014L118.767,62.467L119.202,59.938L119.636,57.431L120.07,54.95L120.505,52.499L120.939,50.084L121.374,47.709L121.808,45.379L122.242,43.099L122.677,40.873L123.111,38.709L123.545,36.61L123.98,34.582L124.414,32.631L124.849,30.762L125.283,28.98L125.717,27.292L126.152,25.701L126.586,24.214L127.02,22.836L127.455,21.572L127.889,20.426L128.323,19.404L128.758,18.509L129.192,17.747L129.627,17.121L130.061,16.634L130.495,16.291L130.93,16.094L131.364,16.045L131.798,16.149L132.233,16.405L132.667,16.816L133.101,17.382L133.536,18.106L133.97,18.985L134.405,20.021L134.839,21.213L135.273,22.559L135.708,24.058L136.142,25.707L136.576,27.504L137.011,29.445L137.445,31.528L137.879,33.748L138.314,36.1L138.748,38.58L139.183,41.182L139.617,43.901L140.051,46.73L140.486,49.663L140.92,52.694L141.354,55.814L141.789,59.018L142.223,62.297L142.657,65.643L143.092,69.049L143.526,72.506L143.961,76.007L144.395,79.542L144.829,83.104L145.264,86.684L145.698,90.275L146.132,93.867L146.567,97.453L147.001,101.025L147.435,104.575L147.87,108.095L148.304,111.579L148.739,115.019L149.173,118.409L149.607,121.742L150.042,125.012L150.476,128.214L150.91,131.343L151.345,134.393L151.779,137.362L152.214,140.244L152.648,143.036L153.082,145.737L153.517,148.343L153.951,150.853L154.385,153.265L154.82,155.58L155.254,157.796L155.688,159.914L156.123,161.934L156.557,163.859L156.992,165.69L157.426,167.428L157.86,169.078L158.295,170.641L158.729,172.121L159.163,173.522L159.598,174.848L160.032,176.104L160.466,177.294L160.901,178.424L161.335,179.498L161.77,180.521L162.204,181.5L162.638,182.44L163.073,183.346L163.507,184.225L163.941,185.081L164.376,185.92L164.81,186.749L165.244,187.571L165.679,188.393L166.113,189.22L166.548,190.055L166.982,190.905L167.416,191.773L167.851,192.664L168.285,193.58L168.719,194.526L169.154,195.504L169.588,196.518L170.022,197.569L170.457,198.66L170.891,199.791L171.326,200.965L171.76,202.181L172.194,203.441L172.629,204.745L173.063,206.091L173.497,207.479L173.932,208.908L174.366,210.377L174.8,211.884L175.235,213.426L175.669,215.002L176.104,216.609L176.538,218.244L176.972,219.904L177.407,221.585L177.841,223.285L178.275,224.999L178.71,226.725L179.144,228.458L179.579,230.195L180.013,231.932L180.447,233.665L180.882,235.391L181.316,237.105L181.75,238.805L182.185,240.486L182.619,242.147L183.053,243.782L183.488,245.39L183.922,246.968L184.357,248.513L184.791,250.023L185.225,251.495L185.66,252.928L186.094,254.321L186.528,255.671L186.963,256.978L187.397,258.242L187.831,259.46L188.266,260.635L188.7,261.764L189.135,262.849L189.569,263.891L190.003,264.889L190.438,265.845L190.872,266.761L191.306,267.637L191.741,268.475L192.175,269.278L192.609,270.047L193.044,270.784L193.478,271.491L193.913,272.172L194.347,272.828L194.781,273.461L195.216,274.076L195.65,274.673L196.084,275.257L196.519,275.828L196.953,276.391L197.387,276.948L197.822,277.5L198.256,278.052L198.691,278.604L199.125,279.16L199.559,279.721L199.994,280.29L200.428,280.868L200.862,281.457L201.297,282.059L201.731,282.676L202.165,283.308L202.6,283.957L203.034,284.623L203.469,285.308L203.903,286.012L204.337,286.736L204.772,287.48L205.206,288.243L205.64,289.027L206.075,289.83L206.509,290.652L206.944,291.494L207.378,292.353L207.812,293.23L208.247,294.124L208.681,295.033L209.115,295.957L209.55,296.893L209.984,297.842L210.418,298.801L210.853,299.77L211.287,300.746L211.722,301.728L212.156,302.716L212.59,303.706L213.025,304.697L213.459,305.689L213.893,306.679L214.328,307.666L214.762,308.648L215.196,309.623L215.631,310.591L216.065,311.55L216.5,312.499L216.934,313.436L217.368,314.359L217.803,315.269L218.237,316.163L218.671,317.04L219.106,317.901L219.54,318.743L219.974,319.566L220.409,320.369L220.843,321.152L221.278,321.914L221.712,322.655L222.146,323.373L222.581,324.07L223.015,324.744L223.449,325.395L223.884,326.024L224.318,326.63L224.752,327.213L225.187,327.773L225.621,328.311L226.056,328.827L226.49,329.321L226.924,329.793L227.359,330.244L227.793,330.673L228.227,331.082L228.662,331.471L229.096,331.841L229.53,332.191L229.965,332.523L230.399,332.837L230.834,333.134L231.268,333.414L231.702,333.678L232.137,333.926L232.571,334.159L233.005,334.378L233.44,334.583L233.874,334.775L234.309,334.955L234.743,335.123L235.177,335.279L235.612,335.425L236.046,335.561L236.48,335.687L236.915,335.803L237.349,335.912L237.783,336.012L238.218,336.104L238.652,336.19L239.087,336.269L239.521,336.341L239.955,336.408L240.39,336.469L240.824,336.525L241.258,336.577L241.693,336.624L242.127,336.667L242.561,336.706L242.996,336.742L243.43,336.774L243.865,336.804L244.299,336.831L244.733,336.855L244.733,337.065L244.299,337.065L243.865,337.065L243.43,337.065L242.996,337.065L242.561,337.065L242.127,337.065L241.693,337.065L241.258,337.065L240.824,337.065L240.39,337.065L239.955,337.065L239.521,337.065L239.087,337.065L238.652,337.065L238.218,337.065L237.783,337.065L237.349,337.065L236.915,337.065L236.48,337.065L236.046,337.065L235.612,337.065L235.177,337.065L234.743,337.065L234.309,337.065L233.874,337.065L233.44,337.065L233.005,337.065L232.571,337.065L232.137,337.065L231.702,337.065L231.268,337.065L230.834,337.065L230.399,337.065L229.965,337.065L229.53,337.065L229.096,337.065L228.662,337.065L228.227,337.065L227.793,337.065L227.359,337.065L226.924,337.065L226.49,337.065L226.056,337.065L225.621,337.065L225.187,337.065L224.752,337.065L224.318,337.065L223.884,337.065L223.449,337.065L223.015,337.065L222.581,337.065L222.146,337.065L221.712,337.065L221.278,337.065L220.843,337.065L220.409,337.065L219.974,337.065L219.54,337.065L219.106,337.065L218.671,337.065L218.237,337.065L217.803,337.065L217.368,337.065L216.934,337.065L216.5,337.065L216.065,337.065L215.631,337.065L215.196,337.065L214.762,337.065L214.328,337.065L213.893,337.065L213.459,337.065L213.025,337.065L212.59,337.065L212.156,337.065L211.722,337.065L211.287,337.065L210.853,337.065L210.418,337.065L209.984,337.065L209.55,337.065L209.115,337.065L208.681,337.065L208.247,337.065L207.812,337.065L207.378,337.065L206.944,337.065L206.509,337.065L206.075,337.065L205.64,337.065L205.206,337.065L204.772,337.065L204.337,337.065L203.903,337.065L203.469,337.065L203.034,337.065L202.6,337.065L202.165,337.065L201.731,337.065L201.297,337.065L200.862,337.065L200.428,337.065L199.994,337.065L199.559,337.065L199.125,337.065L198.691,337.065L198.256,337.065L197.822,337.065L197.387,337.065L196.953,337.065L196.519,337.065L196.084,337.065L195.65,337.065L195.216,337.065L194.781,337.065L194.347,337.065L193.913,337.065L193.478,337.065L193.044,337.065L192.609,337.065L192.175,337.065L191.741,337.065L191.306,337.065L190.872,337.065L190.438,337.065L190.003,337.065L189.569,337.065L189.135,337.065L188.7,337.065L188.266,337.065L187.831,337.065L187.397,337.065L186.963,337.065L186.528,337.065L186.094,337.065L185.66,337.065L185.225,337.065L184.791,337.065L184.357,337.065L183.922,337.065L183.488,337.065L183.053,337.065L182.619,337.065L182.185,337.065L181.75,337.065L181.316,337.065L180.882,337.065L180.447,337.065L180.013,337.065L179.579,337.065L179.144,337.065L178.71,337.065L178.275,337.065L177.841,337.065L177.407,337.065L176.972,337.065L176.538,337.065L176.104,337.065L175.669,337.065L175.235,337.065L174.8,337.065L174.366,337.065L173.932,337.065L173.497,337.065L173.063,337.065L172.629,337.065L172.194,337.065L171.76,337.065L171.326,337.065L170.891,337.065L170.457,337.065L170.022,337.065L169.588,337.065L169.154,337.065L168.719,337.065L168.285,337.065L167.851,337.065L167.416,337.065L166.982,337.065L166.548,337.065L166.113,337.065L165.679,337.065L165.244,337.065L164.81,337.065L164.376,337.065L163.941,337.065L163.507,337.065L163.073,337.065L162.638,337.065L162.204,337.065L161.77,337.065L161.335,337.065L160.901,337.065L160.466,337.065L160.032,337.065L159.598,337.065L159.163,337.065L158.729,337.065L158.295,337.065L157.86,337.065L157.426,337.065L156.992,337.065L156.557,337.065L156.123,337.065L155.688,337.065L155.254,337.065L154.82,337.065L154.385,337.065L153.951,337.065L153.517,337.065L153.082,337.065L152.648,337.065L152.214,337.065L151.779,337.065L151.345,337.065L150.91,337.065L150.476,337.065L150.042,337.065L149.607,337.065L149.173,337.065L148.739,337.065L148.304,337.065L147.87,337.065L147.435,337.065L147.001,337.065L146.567,337.065L146.132,337.065L145.698,337.065L145.264,337.065L144.829,337.065L144.395,337.065L143.961,337.065L143.526,337.065L143.092,337.065L142.657,337.065L142.223,337.065L141.789,337.065L141.354,337.065L140.92,337.065L140.486,337.065L140.051,337.065L139.617,337.065L139.183,337.065L138.748,337.065L138.314,337.065L137.879,337.065L137.445,337.065L137.011,337.065L136.576,337.065L136.142,337.065L135.708,337.065L135.273,337.065L134.839,337.065L134.405,337.065L133.97,337.065L133.536,337.065L133.101,337.065L132.667,337.065L132.233,337.065L131.798,337.065L131.364,337.065L130.93,337.065L130.495,337.065L130.061,337.065L129.627,337.065L129.192,337.065L128.758,337.065L128.323,337.065L127.889,337.065L127.455,337.065L127.02,337.065L126.586,337.065L126.152,337.065L125.717,337.065L125.283,337.065L124.849,337.065L124.414,337.065L123.98,337.065L123.545,337.065L123.111,337.065L122.677,337.065L122.242,337.065L121.808,337.065L121.374,337.065L120.939,337.065L120.505,337.065L120.07,337.065L119.636,337.065L119.202,337.065L118.767,337.065L118.333,337.065L117.899,337.065L117.464,337.065L117.03,337.065L116.596,337.065L116.161,337.065L115.727,337.065L115.292,337.065L114.858,337.065L114.424,337.065L113.989,337.065L113.555,337.065L113.121,337.065L112.686,337.065L112.252,337.065L111.818,337.065L111.383,337.065L110.949,337.065L110.514,337.065L110.08,337.065L109.646,337.065L109.211,337.065L108.777,337.065L108.343,337.065L107.908,337.065L107.474,337.065L107.04,337.065L106.605,337.065L106.171,337.065L105.736,337.065L105.302,337.065L104.868,337.065L104.433,337.065L103.999,337.065L103.565,337.065L103.13,337.065L102.696,337.065L102.262,337.065L101.827,337.065L101.393,337.065L100.958,337.065L100.524,337.065L100.09,337.065L99.655,337.065L99.221,337.065L98.787,337.065L98.352,337.065L97.918,337.065L97.484,337.065L97.049,337.065L96.615,337.065L96.18,337.065L95.746,337.065L95.312,337.065L94.877,337.065L94.443,337.065L94.009,337.065L93.574,337.065L93.14,337.065L92.705,337.065L92.271,337.065L91.837,337.065L91.402,337.065L90.968,337.065L90.534,337.065L90.099,337.065L89.665,337.065L89.231,337.065L88.796,337.065L88.362,337.065L87.927,337.065L87.493,337.065L87.059,337.065L86.624,337.065L86.19,337.065L85.756,337.065L85.321,337.065L84.887,337.065L84.453,337.065L84.018,337.065L83.584,337.065L83.149,337.065L82.715,337.065L82.281,337.065L81.846,337.065L81.412,337.065L80.978,337.065L80.543,337.065L80.109,337.065L79.675,337.065L79.24,337.065L78.806,337.065L78.371,337.065L77.937,337.065L77.503,337.065L77.068,337.065L76.634,337.065L76.2,337.065L75.765,337.065L75.331,337.065L74.897,337.065L74.462,337.065L74.028,337.065L73.593,337.065L73.159,337.065L72.725,337.065L72.29,337.065L71.856,337.065L71.422,337.065L70.987,337.065L70.553,337.065L70.119,337.065L69.684,337.065L69.25,337.065L68.815,337.065L68.381,337.065L67.947,337.065L67.512,337.065L67.078,337.065L66.644,337.065L66.209,337.065L65.775,337.065L65.341,337.065L64.906,337.065L64.472,337.065L64.037,337.065L63.603,337.065L63.169,337.065L62.734,337.065L62.3,337.065L61.866,337.065L61.431,337.065L60.997,337.065L60.562,337.065L60.128,337.065L59.694,337.065L59.259,337.065L58.825,337.065L58.391,337.065L57.956,337.065L57.522,337.065L57.088,337.065L56.653,337.065L56.219,337.065L55.784,337.065L55.35,337.065L54.916,337.065L54.481,337.065L54.047,337.065L53.613,337.065L53.178,337.065L52.744,337.065L52.31,337.065L51.875,337.065L51.441,337.065L51.006,337.065L50.572,337.065L50.138,337.065L49.703,337.065L49.269,337.065L48.835,337.065L48.4,337.065L47.966,337.065L47.532,337.065L47.097,337.065L46.663,337.065L46.228,337.065L45.794,337.065L45.36,337.065L44.925,337.065L44.491,337.065L44.057,337.065L43.622,337.065L43.188,337.065L42.754,337.065L42.319,337.065L41.885,337.065L41.45,337.065L41.016,337.065L40.582,337.065L40.147,337.065L39.713,337.065L39.279,337.065L38.844,337.065L38.41,337.065L37.976,337.065L37.541,337.065L37.107,337.065L36.672,337.065L36.238,337.065L35.804,337.065L35.369,337.065L34.935,337.065L34.501,337.065L34.066,337.065L33.632,337.065L33.197,337.065L32.763,337.065L32.329,337.065L31.894,337.065L31.46,337.065L31.026,337.065L30.591,337.065L30.157,337.065L29.723,337.065L29.288,337.065L28.854,337.065L28.419,337.065L27.985,337.065L27.551,337.065L27.116,337.065L26.682,337.065L26.248,337.065L25.813,337.065L25.379,337.065L24.945,337.065L24.51,337.065L24.076,337.065L23.641,337.065L23.207,337.065L22.773,337.065Z" fill="#118DFF" opacity="0.3"></path><path class="ggpbi-density" d="M22.773,336.843L23.207,336.817L23.641,336.788L24.076,336.756L24.51,336.721L24.945,336.682L25.379,336.64L25.813,336.593L26.248,336.542L26.682,336.486L27.116,336.425L27.551,336.357L27.985,336.284L28.419,336.204L28.854,336.117L29.288,336.023L29.723,335.92L30.157,335.808L30.591,335.687L31.026,335.557L31.46,335.415L31.894,335.262L32.329,335.098L32.763,334.92L33.197,334.729L33.632,334.524L34.066,334.304L34.501,334.068L34.935,333.815L35.369,333.545L35.804,333.257L36.238,332.949L36.672,332.621L37.107,332.272L37.541,331.901L37.976,331.507L38.41,331.089L38.844,330.647L39.279,330.179L39.713,329.685L40.147,329.163L40.582,328.613L41.016,328.035L41.45,327.426L41.885,326.788L42.319,326.118L42.754,325.416L43.188,324.681L43.622,323.914L44.057,323.113L44.491,322.278L44.925,321.409L45.36,320.505L45.794,319.566L46.228,318.593L46.663,317.584L47.097,316.54L47.532,315.461L47.966,314.348L48.4,313.2L48.835,312.018L49.269,310.803L49.703,309.555L50.138,308.275L50.572,306.964L51.006,305.622L51.441,304.251L51.875,302.852L52.31,301.426L52.744,299.974L53.178,298.498L53.613,296.999L54.047,295.479L54.481,293.94L54.916,292.383L55.35,290.809L55.784,289.222L56.219,287.622L56.653,286.011L57.088,284.392L57.522,282.767L57.956,281.137L58.391,279.505L58.825,277.871L59.259,276.239L59.694,274.611L60.128,272.987L60.562,271.37L60.997,269.762L61.431,268.164L61.866,266.577L62.3,265.005L62.734,263.446L63.169,261.905L63.603,260.38L64.037,258.873L64.472,257.386L64.906,255.92L65.341,254.474L65.775,253.049L66.209,251.646L66.644,250.266L67.078,248.907L67.512,247.572L67.947,246.258L68.381,244.967L68.815,243.697L69.25,242.448L69.684,241.221L70.119,240.013L70.553,238.825L70.987,237.655L71.422,236.503L71.856,235.367L72.29,234.247L72.725,233.141L73.159,232.049L73.593,230.969L74.028,229.899L74.462,228.84L74.897,227.789L75.331,226.745L75.765,225.708L76.2,224.676L76.634,223.648L77.068,222.623L77.503,221.6L77.937,220.578L78.371,219.556L78.806,218.533L79.24,217.509L79.675,216.482L80.109,215.453L80.543,214.42L80.978,213.382L81.412,212.341L81.846,211.294L82.281,210.242L82.715,209.184L83.149,208.12L83.584,207.049L84.018,205.972L84.453,204.888L84.887,203.798L85.321,202.7L85.756,201.594L86.19,200.481L86.624,199.361L87.059,198.232L87.493,197.095L87.927,195.95L88.362,194.795L88.796,193.632L89.231,192.459L89.665,191.277L90.099,190.084L90.534,188.88L90.968,187.665L91.402,186.439L91.837,185.199L92.271,183.947L92.705,182.681L93.14,181.4L93.574,180.104L94.009,178.792L94.443,177.463L94.877,176.117L95.312,174.752L95.746,173.368L96.18,171.963L96.615,170.538L97.049,169.091L97.484,167.621L97.918,166.127L98.352,164.61L98.787,163.067L99.221,161.499L99.655,159.904L100.09,158.282L100.524,156.632L100.958,154.954L101.393,153.247L101.827,151.511L102.262,149.745L102.696,147.948L103.13,146.121L103.565,144.263L103.999,142.374L104.433,140.454L104.868,138.502L105.302,136.519L105.736,134.504L106.171,132.457L106.605,130.379L107.04,128.27L107.474,126.13L107.908,123.959L108.343,121.757L108.777,119.526L109.211,117.264L109.646,114.974L110.08,112.656L110.514,110.311L110.949,107.938L111.383,105.541L111.818,103.118L112.252,100.673L112.686,98.205L113.121,95.717L113.555,93.21L113.989,90.686L114.424,88.147L114.858,85.595L115.292,83.032L115.727,80.46L116.161,77.883L116.596,75.303L117.03,72.722L117.464,70.145L117.899,67.575L118.333,65.014L118.767,62.467L119.202,59.938L119.636,57.431L120.07,54.95L120.505,52.499L120.939,50.084L121.374,47.709L121.808,45.379L122.242,43.099L122.677,40.873L123.111,38.709L123.545,36.61L123.98,34.582L124.414,32.631L124.849,30.762L125.283,28.98L125.717,27.292L126.152,25.701L126.586,24.214L127.02,22.836L127.455,21.572L127.889,20.426L128.323,19.404L128.758,18.509L129.192,17.747L129.627,17.121L130.061,16.634L130.495,16.291L130.93,16.094L131.364,16.045L131.798,16.149L132.233,16.405L132.667,16.816L133.101,17.382L133.536,18.106L133.97,18.985L134.405,20.021L134.839,21.213L135.273,22.559L135.708,24.058L136.142,25.707L136.576,27.504L137.011,29.445L137.445,31.528L137.879,33.748L138.314,36.1L138.748,38.58L139.183,41.182L139.617,43.901L140.051,46.73L140.486,49.663L140.92,52.694L141.354,55.814L141.789,59.018L142.223,62.297L142.657,65.643L143.092,69.049L143.526,72.506L143.961,76.007L144.395,79.542L144.829,83.104L145.264,86.684L145.698,90.275L146.132,93.867L146.567,97.453L147.001,101.025L147.435,104.575L147.87,108.095L148.304,111.579L148.739,115.019L149.173,118.409L149.607,121.742L150.042,125.012L150.476,128.214L150.91,131.343L151.345,134.393L151.779,137.362L152.214,140.244L152.648,143.036L153.082,145.737L153.517,148.343L153.951,150.853L154.385,153.265L154.82,155.58L155.254,157.796L155.688,159.914L156.123,161.934L156.557,163.859L156.992,165.69L157.426,167.428L157.86,169.078L158.295,170.641L158.729,172.121L159.163,173.522L159.598,174.848L160.032,176.104L160.466,177.294L160.901,178.424L161.335,179.498L161.77,180.521L162.204,181.5L162.638,182.44L163.073,183.346L163.507,184.225L163.941,185.081L164.376,185.92L164.81,186.749L165.244,187.571L165.679,188.393L166.113,189.22L166.548,190.055L166.982,190.905L167.416,191.773L167.851,192.664L168.285,193.58L168.719,194.526L169.154,195.504L169.588,196.518L170.022,197.569L170.457,198.66L170.891,199.791L171.326,200.965L171.76,202.181L172.194,203.441L172.629,204.745L173.063,206.091L173.497,207.479L173.932,208.908L174.366,210.377L174.8,211.884L175.235,213.426L175.669,215.002L176.104,216.609L176.538,218.244L176.972,219.904L177.407,221.585L177.841,223.285L178.275,224.999L178.71,226.725L179.144,228.458L179.579,230.195L180.013,231.932L180.447,233.665L180.882,235.391L181.316,237.105L181.75,238.805L182.185,240.486L182.619,242.147L183.053,243.782L183.488,245.39L183.922,246.968L184.357,248.513L184.791,250.023L185.225,251.495L185.66,252.928L186.094,254.321L186.528,255.671L186.963,256.978L187.397,258.242L187.831,259.46L188.266,260.635L188.7,261.764L189.135,262.849L189.569,263.891L190.003,264.889L190.438,265.845L190.872,266.761L191.306,267.637L191.741,268.475L192.175,269.278L192.609,270.047L193.044,270.784L193.478,271.491L193.913,272.172L194.347,272.828L194.781,273.461L195.216,274.076L195.65,274.673L196.084,275.257L196.519,275.828L196.953,276.391L197.387,276.948L197.822,277.5L198.256,278.052L198.691,278.604L199.125,279.16L199.559,279.721L199.994,280.29L200.428,280.868L200.862,281.457L201.297,282.059L201.731,282.676L202.165,283.308L202.6,283.957L203.034,284.623L203.469,285.308L203.903,286.012L204.337,286.736L204.772,287.48L205.206,288.243L205.64,289.027L206.075,289.83L206.509,290.652L206.944,291.494L207.378,292.353L207.812,293.23L208.247,294.124L208.681,295.033L209.115,295.957L209.55,296.893L209.984,297.842L210.418,298.801L210.853,299.77L211.287,300.746L211.722,301.728L212.156,302.716L212.59,303.706L213.025,304.697L213.459,305.689L213.893,306.679L214.328,307.666L214.762,308.648L215.196,309.623L215.631,310.591L216.065,311.55L216.5,312.499L216.934,313.436L217.368,314.359L217.803,315.269L218.237,316.163L218.671,317.04L219.106,317.901L219.54,318.743L219.974,319.566L220.409,320.369L220.843,321.152L221.278,321.914L221.712,322.655L222.146,323.373L222.581,324.07L223.015,324.744L223.449,325.395L223.884,326.024L224.318,326.63L224.752,327.213L225.187,327.773L225.621,328.311L226.056,328.827L226.49,329.321L226.924,329.793L227.359,330.244L227.793,330.673L228.227,331.082L228.662,331.471L229.096,331.841L229.53,332.191L229.965,332.523L230.399,332.837L230.834,333.134L231.268,333.414L231.702,333.678L232.137,333.926L232.571,334.159L233.005,334.378L233.44,334.583L233.874,334.775L234.309,334.955L234.743,335.123L235.177,335.279L235.612,335.425L236.046,335.561L236.48,335.687L236.915,335.803L237.349,335.912L237.783,336.012L238.218,336.104L238.652,336.19L239.087,336.269L239.521,336.341L239.955,336.408L240.39,336.469L240.824,336.525L241.258,336.577L241.693,336.624L242.127,336.667L242.561,336.706L242.996,336.742L243.43,336.774L243.865,336.804L244.299,336.831L244.733,336.855" fill="none" stroke="#118DFF" stroke-width="2" stroke-linejoin="round" opacity="1"></path><path class="ggpbi-density-area" d="M55.638,336.905L56.293,336.889L56.948,336.871L57.603,336.851L58.258,336.83L58.914,336.807L59.569,336.781L60.224,336.754L60.879,336.724L61.535,336.691L62.19,336.656L62.845,336.618L63.5,336.577L64.155,336.532L64.811,336.484L65.466,336.432L66.121,336.376L66.776,336.316L67.432,336.251L68.087,336.182L68.742,336.107L69.397,336.027L70.052,335.941L70.708,335.85L71.363,335.752L72.018,335.647L72.673,335.535L73.329,335.416L73.984,335.29L74.639,335.155L75.294,335.012L75.949,334.86L76.605,334.699L77.26,334.528L77.915,334.347L78.57,334.156L79.226,333.955L79.881,333.742L80.536,333.518L81.191,333.282L81.846,333.033L82.502,332.772L83.157,332.498L83.812,332.211L84.467,331.91L85.123,331.596L85.778,331.267L86.433,330.923L87.088,330.564L87.743,330.191L88.399,329.802L89.054,329.398L89.709,328.978L90.364,328.542L91.02,328.09L91.675,327.622L92.33,327.139L92.985,326.639L93.641,326.123L94.296,325.591L94.951,325.043L95.606,324.479L96.261,323.9L96.917,323.305L97.572,322.695L98.227,322.07L98.882,321.431L99.538,320.778L100.193,320.111L100.848,319.431L101.503,318.739L102.158,318.034L102.814,317.318L103.469,316.591L104.124,315.853L104.779,315.106L105.435,314.351L106.09,313.587L106.745,312.817L107.4,312.04L108.055,311.257L108.711,310.47L109.366,309.679L110.021,308.885L110.676,308.089L111.332,307.292L111.987,306.494L112.642,305.698L113.297,304.903L113.952,304.11L114.608,303.32L115.263,302.535L115.918,301.754L116.573,300.979L117.229,300.211L117.884,299.449L118.539,298.694L119.194,297.948L119.849,297.211L120.505,296.482L121.16,295.763L121.815,295.054L122.47,294.354L123.126,293.665L123.781,292.985L124.436,292.316L125.091,291.656L125.746,291.007L126.402,290.366L127.057,289.735L127.712,289.112L128.367,288.497L129.023,287.889L129.678,287.287L130.333,286.691L130.988,286.1L131.644,285.512L132.299,284.926L132.954,284.341L133.609,283.756L134.264,283.169L134.92,282.578L135.575,281.983L136.23,281.382L136.885,280.772L137.541,280.152L138.196,279.521L138.851,278.876L139.506,278.216L140.161,277.538L140.817,276.842L141.472,276.124L142.127,275.383L142.782,274.617L143.438,273.825L144.093,273.003L144.748,272.151L145.403,271.267L146.058,270.349L146.714,269.395L147.369,268.404L148.024,267.375L148.679,266.305L149.335,265.193L149.99,264.04L150.645,262.842L151.3,261.6L151.955,260.312L152.611,258.979L153.266,257.598L153.921,256.171L154.576,254.697L155.232,253.175L155.887,251.606L156.542,249.991L157.197,248.329L157.852,246.621L158.508,244.869L159.163,243.072L159.818,241.233L160.473,239.352L161.129,237.432L161.784,235.473L162.439,233.478L163.094,231.448L163.749,229.386L164.405,227.295L165.06,225.175L165.715,223.031L166.37,220.865L167.026,218.679L167.681,216.477L168.336,214.262L168.991,212.036L169.646,209.804L170.302,207.568L170.957,205.331L171.612,203.097L172.267,200.87L172.923,198.652L173.578,196.448L174.233,194.26L174.888,192.093L175.544,189.949L176.199,187.831L176.854,185.744L177.509,183.69L178.164,181.672L178.82,179.694L179.475,177.758L180.13,175.867L180.785,174.024L181.441,172.231L182.096,170.491L182.751,168.806L183.406,167.178L184.061,165.61L184.717,164.102L185.372,162.656L186.027,161.275L186.682,159.958L187.338,158.708L187.993,157.524L188.648,156.409L189.303,155.361L189.958,154.382L190.614,153.471L191.269,152.629L191.924,151.855L192.579,151.149L193.235,150.51L193.89,149.937L194.545,149.43L195.2,148.988L195.855,148.608L196.511,148.291L197.166,148.033L197.821,147.835L198.476,147.694L199.132,147.608L199.787,147.575L200.442,147.594L201.097,147.662L201.752,147.778L202.408,147.938L203.063,148.142L203.718,148.387L204.373,148.67L205.029,148.989L205.684,149.343L206.339,149.728L206.994,150.144L207.649,150.587L208.305,151.056L208.96,151.548L209.615,152.062L210.27,152.596L210.926,153.148L211.581,153.716L212.236,154.298L212.891,154.893L213.546,155.5L214.202,156.116L214.857,156.742L215.512,157.375L216.167,158.014L216.823,158.659L217.478,159.309L218.133,159.963L218.788,160.619L219.444,161.279L220.099,161.94L220.754,162.603L221.409,163.268L222.064,163.934L222.72,164.601L223.375,165.27L224.03,165.939L224.685,166.61L225.341,167.283L225.996,167.957L226.651,168.633L227.306,169.311L227.961,169.993L228.617,170.677L229.272,171.365L229.927,172.056L230.582,172.753L231.238,173.454L231.893,174.16L232.548,174.872L233.203,175.591L233.858,176.317L234.514,177.05L235.169,177.79L235.824,178.538L236.479,179.295L237.135,180.061L237.79,180.836L238.445,181.619L239.1,182.413L239.755,183.216L240.411,184.028L241.066,184.851L241.721,185.683L242.376,186.524L243.032,187.376L243.687,188.237L244.342,189.107L244.997,189.986L245.652,190.874L246.308,191.77L246.963,192.674L247.618,193.585L248.273,194.503L248.929,195.428L249.584,196.358L250.239,197.294L250.894,198.235L251.549,199.179L252.205,200.126L252.86,201.076L253.515,202.028L254.17,202.98L254.826,203.933L255.481,204.885L256.136,205.835L256.791,206.784L257.446,207.729L258.102,208.671L258.757,209.608L259.412,210.54L260.067,211.466L260.723,212.385L261.378,213.296L262.033,214.2L262.688,215.095L263.344,215.981L263.999,216.857L264.654,217.722L265.309,218.577L265.964,219.42L266.62,220.253L267.275,221.073L267.93,221.881L268.585,222.677L269.241,223.46L269.896,224.231L270.551,224.989L271.206,225.734L271.861,226.468L272.517,227.188L273.172,227.897L273.827,228.594L274.482,229.279L275.138,229.954L275.793,230.617L276.448,231.271L277.103,231.914L277.758,232.549L278.414,233.175L279.069,233.793L279.724,234.404L280.379,235.009L281.035,235.609L281.69,236.204L282.345,236.794L283,237.382L283.655,237.968L284.311,238.552L284.966,239.137L285.621,239.722L286.276,240.308L286.932,240.897L287.587,241.49L288.242,242.086L288.897,242.688L289.552,243.296L290.208,243.912L290.863,244.535L291.518,245.166L292.173,245.807L292.829,246.458L293.484,247.12L294.139,247.794L294.794,248.479L295.449,249.178L296.105,249.89L296.76,250.615L297.415,251.355L298.07,252.109L298.726,252.878L299.381,253.662L300.036,254.461L300.691,255.276L301.346,256.107L302.002,256.953L302.657,257.814L303.312,258.692L303.967,259.584L304.623,260.492L305.278,261.415L305.933,262.353L306.588,263.305L307.244,264.271L307.899,265.251L308.554,266.244L309.209,267.249L309.864,268.267L310.52,269.297L311.175,270.337L311.83,271.387L312.485,272.447L313.141,273.517L313.796,274.594L314.451,275.679L315.106,276.77L315.761,277.868L316.417,278.97L317.072,280.078L317.727,281.188L318.382,282.302L319.038,283.417L319.693,284.533L320.348,285.65L321.003,286.767L321.658,287.882L322.314,288.994L322.969,290.104L323.624,291.211L324.279,292.312L324.935,293.409L325.59,294.5L326.245,295.584L326.9,296.66L327.555,297.728L328.211,298.788L328.866,299.838L329.521,300.878L330.176,301.907L330.832,302.925L331.487,303.931L332.142,304.925L332.797,305.905L333.452,306.873L334.108,307.826L334.763,308.765L335.418,309.689L336.073,310.597L336.729,311.491L337.384,312.368L338.039,313.229L338.694,314.073L339.349,314.901L340.005,315.712L340.66,316.505L341.315,317.281L341.97,318.039L342.626,318.779L343.281,319.502L343.936,320.206L344.591,320.893L345.247,321.562L345.902,322.212L346.557,322.844L347.212,323.459L347.867,324.055L348.523,324.634L349.178,325.195L349.833,325.738L350.488,326.264L351.144,326.772L351.799,327.263L352.454,327.738L353.109,328.195L353.764,328.636L354.42,329.061L355.075,329.47L355.73,329.864L356.385,330.241L357.041,330.604L357.696,330.952L358.351,331.286L359.006,331.605L359.661,331.911L360.317,332.203L360.972,332.482L361.627,332.749L362.282,333.003L362.938,333.245L363.593,333.475L364.248,333.694L364.903,333.902L365.558,334.1L366.214,334.288L366.869,334.466L367.524,334.634L368.179,334.793L368.835,334.944L369.49,335.086L370.145,335.22L370.8,335.347L371.455,335.466L372.111,335.578L372.766,335.683L373.421,335.782L374.076,335.875L374.732,335.962L375.387,336.044L376.042,336.12L376.697,336.191L377.352,336.258L378.008,336.32L378.663,336.378L379.318,336.432L379.973,336.483L380.629,336.529L381.284,336.573L381.939,336.613L382.594,336.65L383.249,336.685L383.905,336.717L384.56,336.747L385.215,336.774L385.87,336.799L386.526,336.823L387.181,336.844L387.836,336.864L388.491,336.882L389.147,336.898L389.802,336.914L390.457,336.928L390.457,337.065L389.802,337.065L389.147,337.065L388.491,337.065L387.836,337.065L387.181,337.065L386.526,337.065L385.87,337.065L385.215,337.065L384.56,337.065L383.905,337.065L383.249,337.065L382.594,337.065L381.939,337.065L381.284,337.065L380.629,337.065L379.973,337.065L379.318,337.065L378.663,337.065L378.008,337.065L377.352,337.065L376.697,337.065L376.042,337.065L375.387,337.065L374.732,337.065L374.076,337.065L373.421,337.065L372.766,337.065L372.111,337.065L371.455,337.065L370.8,337.065L370.145,337.065L369.49,337.065L368.835,337.065L368.179,337.065L367.524,337.065L366.869,337.065L366.214,337.065L365.558,337.065L364.903,337.065L364.248,337.065L363.593,337.065L362.938,337.065L362.282,337.065L361.627,337.065L360.972,337.065L360.317,337.065L359.661,337.065L359.006,337.065L358.351,337.065L357.696,337.065L357.041,337.065L356.385,337.065L355.73,337.065L355.075,337.065L354.42,337.065L353.764,337.065L353.109,337.065L352.454,337.065L351.799,337.065L351.144,337.065L350.488,337.065L349.833,337.065L349.178,337.065L348.523,337.065L347.867,337.065L347.212,337.065L346.557,337.065L345.902,337.065L345.247,337.065L344.591,337.065L343.936,337.065L343.281,337.065L342.626,337.065L341.97,337.065L341.315,337.065L340.66,337.065L340.005,337.065L339.349,337.065L338.694,337.065L338.039,337.065L337.384,337.065L336.729,337.065L336.073,337.065L335.418,337.065L334.763,337.065L334.108,337.065L333.452,337.065L332.797,337.065L332.142,337.065L331.487,337.065L330.832,337.065L330.176,337.065L329.521,337.065L328.866,337.065L328.211,337.065L327.555,337.065L326.9,337.065L326.245,337.065L325.59,337.065L324.935,337.065L324.279,337.065L323.624,337.065L322.969,337.065L322.314,337.065L321.658,337.065L321.003,337.065L320.348,337.065L319.693,337.065L319.038,337.065L318.382,337.065L317.727,337.065L317.072,337.065L316.417,337.065L315.761,337.065L315.106,337.065L314.451,337.065L313.796,337.065L313.141,337.065L312.485,337.065L311.83,337.065L311.175,337.065L310.52,337.065L309.864,337.065L309.209,337.065L308.554,337.065L307.899,337.065L307.244,337.065L306.588,337.065L305.933,337.065L305.278,337.065L304.623,337.065L303.967,337.065L303.312,337.065L302.657,337.065L302.002,337.065L301.346,337.065L300.691,337.065L300.036,337.065L299.381,337.065L298.726,337.065L298.07,337.065L297.415,337.065L296.76,337.065L296.105,337.065L295.449,337.065L294.794,337.065L294.139,337.065L293.484,337.065L292.829,337.065L292.173,337.065L291.518,337.065L290.863,337.065L290.208,337.065L289.552,337.065L288.897,337.065L288.242,337.065L287.587,337.065L286.932,337.065L286.276,337.065L285.621,337.065L284.966,337.065L284.311,337.065L283.655,337.065L283,337.065L282.345,337.065L281.69,337.065L281.035,337.065L280.379,337.065L279.724,337.065L279.069,337.065L278.414,337.065L277.758,337.065L277.103,337.065L276.448,337.065L275.793,337.065L275.138,337.065L274.482,337.065L273.827,337.065L273.172,337.065L272.517,337.065L271.861,337.065L271.206,337.065L270.551,337.065L269.896,337.065L269.241,337.065L268.585,337.065L267.93,337.065L267.275,337.065L266.62,337.065L265.964,337.065L265.309,337.065L264.654,337.065L263.999,337.065L263.344,337.065L262.688,337.065L262.033,337.065L261.378,337.065L260.723,337.065L260.067,337.065L259.412,337.065L258.757,337.065L258.102,337.065L257.446,337.065L256.791,337.065L256.136,337.065L255.481,337.065L254.826,337.065L254.17,337.065L253.515,337.065L252.86,337.065L252.205,337.065L251.549,337.065L250.894,337.065L250.239,337.065L249.584,337.065L248.929,337.065L248.273,337.065L247.618,337.065L246.963,337.065L246.308,337.065L245.652,337.065L244.997,337.065L244.342,337.065L243.687,337.065L243.032,337.065L242.376,337.065L241.721,337.065L241.066,337.065L240.411,337.065L239.755,337.065L239.1,337.065L238.445,337.065L237.79,337.065L237.135,337.065L236.479,337.065L235.824,337.065L235.169,337.065L234.514,337.065L233.858,337.065L233.203,337.065L232.548,337.065L231.893,337.065L231.238,337.065L230.582,337.065L229.927,337.065L229.272,337.065L228.617,337.065L227.961,337.065L227.306,337.065L226.651,337.065L225.996,337.065L225.341,337.065L224.685,337.065L224.03,337.065L223.375,337.065L222.72,337.065L222.064,337.065L221.409,337.065L220.754,337.065L220.099,337.065L219.444,337.065L218.788,337.065L218.133,337.065L217.478,337.065L216.823,337.065L216.167,337.065L215.512,337.065L214.857,337.065L214.202,337.065L213.546,337.065L212.891,337.065L212.236,337.065L211.581,337.065L210.926,337.065L210.27,337.065L209.615,337.065L208.96,337.065L208.305,337.065L207.649,337.065L206.994,337.065L206.339,337.065L205.684,337.065L205.029,337.065L204.373,337.065L203.718,337.065L203.063,337.065L202.408,337.065L201.752,337.065L201.097,337.065L200.442,337.065L199.787,337.065L199.132,337.065L198.476,337.065L197.821,337.065L197.166,337.065L196.511,337.065L195.855,337.065L195.2,337.065L194.545,337.065L193.89,337.065L193.235,337.065L192.579,337.065L191.924,337.065L191.269,337.065L190.614,337.065L189.958,337.065L189.303,337.065L188.648,337.065L187.993,337.065L187.338,337.065L186.682,337.065L186.027,337.065L185.372,337.065L184.717,337.065L184.061,337.065L183.406,337.065L182.751,337.065L182.096,337.065L181.441,337.065L180.785,337.065L180.13,337.065L179.475,337.065L178.82,337.065L178.164,337.065L177.509,337.065L176.854,337.065L176.199,337.065L175.544,337.065L174.888,337.065L174.233,337.065L173.578,337.065L172.923,337.065L172.267,337.065L171.612,337.065L170.957,337.065L170.302,337.065L169.646,337.065L168.991,337.065L168.336,337.065L167.681,337.065L167.026,337.065L166.37,337.065L165.715,337.065L165.06,337.065L164.405,337.065L163.749,337.065L163.094,337.065L162.439,337.065L161.784,337.065L161.129,337.065L160.473,337.065L159.818,337.065L159.163,337.065L158.508,337.065L157.852,337.065L157.197,337.065L156.542,337.065L155.887,337.065L155.232,337.065L154.576,337.065L153.921,337.065L153.266,337.065L152.611,337.065L151.955,337.065L151.3,337.065L150.645,337.065L149.99,337.065L149.335,337.065L148.679,337.065L148.024,337.065L147.369,337.065L146.714,337.065L146.058,337.065L145.403,337.065L144.748,337.065L144.093,337.065L143.438,337.065L142.782,337.065L142.127,337.065L141.472,337.065L140.817,337.065L140.161,337.065L139.506,337.065L138.851,337.065L138.196,337.065L137.541,337.065L136.885,337.065L136.23,337.065L135.575,337.065L134.92,337.065L134.264,337.065L133.609,337.065L132.954,337.065L132.299,337.065L131.644,337.065L130.988,337.065L130.333,337.065L129.678,337.065L129.023,337.065L128.367,337.065L127.712,337.065L127.057,337.065L126.402,337.065L125.746,337.065L125.091,337.065L124.436,337.065L123.781,337.065L123.126,337.065L122.47,337.065L121.815,337.065L121.16,337.065L120.505,337.065L119.849,337.065L119.194,337.065L118.539,337.065L117.884,337.065L117.229,337.065L116.573,337.065L115.918,337.065L115.263,337.065L114.608,337.065L113.952,337.065L113.297,337.065L112.642,337.065L111.987,337.065L111.332,337.065L110.676,337.065L110.021,337.065L109.366,337.065L108.711,337.065L108.055,337.065L107.4,337.065L106.745,337.065L106.09,337.065L105.435,337.065L104.779,337.065L104.124,337.065L103.469,337.065L102.814,337.065L102.158,337.065L101.503,337.065L100.848,337.065L100.193,337.065L99.538,337.065L98.882,337.065L98.227,337.065L97.572,337.065L96.917,337.065L96.261,337.065L95.606,337.065L94.951,337.065L94.296,337.065L93.641,337.065L92.985,337.065L92.33,337.065L91.675,337.065L91.02,337.065L90.364,337.065L89.709,337.065L89.054,337.065L88.399,337.065L87.743,337.065L87.088,337.065L86.433,337.065L85.778,337.065L85.123,337.065L84.467,337.065L83.812,337.065L83.157,337.065L82.502,337.065L81.846,337.065L81.191,337.065L80.536,337.065L79.881,337.065L79.226,337.065L78.57,337.065L77.915,337.065L77.26,337.065L76.605,337.065L75.949,337.065L75.294,337.065L74.639,337.065L73.984,337.065L73.329,337.065L72.673,337.065L72.018,337.065L71.363,337.065L70.708,337.065L70.052,337.065L69.397,337.065L68.742,337.065L68.087,337.065L67.432,337.065L66.776,337.065L66.121,337.065L65.466,337.065L64.811,337.065L64.155,337.065L63.5,337.065L62.845,337.065L62.19,337.065L61.535,337.065L60.879,337.065L60.224,337.065L59.569,337.065L58.914,337.065L58.258,337.065L57.603,337.065L56.948,337.065L56.293,337.065L55.638,337.065Z" fill="#12239E" opacity="0.3"></path><path class="ggpbi-density" d="M55.638,336.905L56.293,336.889L56.948,336.871L57.603,336.851L58.258,336.83L58.914,336.807L59.569,336.781L60.224,336.754L60.879,336.724L61.535,336.691L62.19,336.656L62.845,336.618L63.5,336.577L64.155,336.532L64.811,336.484L65.466,336.432L66.121,336.376L66.776,336.316L67.432,336.251L68.087,336.182L68.742,336.107L69.397,336.027L70.052,335.941L70.708,335.85L71.363,335.752L72.018,335.647L72.673,335.535L73.329,335.416L73.984,335.29L74.639,335.155L75.294,335.012L75.949,334.86L76.605,334.699L77.26,334.528L77.915,334.347L78.57,334.156L79.226,333.955L79.881,333.742L80.536,333.518L81.191,333.282L81.846,333.033L82.502,332.772L83.157,332.498L83.812,332.211L84.467,331.91L85.123,331.596L85.778,331.267L86.433,330.923L87.088,330.564L87.743,330.191L88.399,329.802L89.054,329.398L89.709,328.978L90.364,328.542L91.02,328.09L91.675,327.622L92.33,327.139L92.985,326.639L93.641,326.123L94.296,325.591L94.951,325.043L95.606,324.479L96.261,323.9L96.917,323.305L97.572,322.695L98.227,322.07L98.882,321.431L99.538,320.778L100.193,320.111L100.848,319.431L101.503,318.739L102.158,318.034L102.814,317.318L103.469,316.591L104.124,315.853L104.779,315.106L105.435,314.351L106.09,313.587L106.745,312.817L107.4,312.04L108.055,311.257L108.711,310.47L109.366,309.679L110.021,308.885L110.676,308.089L111.332,307.292L111.987,306.494L112.642,305.698L113.297,304.903L113.952,304.11L114.608,303.32L115.263,302.535L115.918,301.754L116.573,300.979L117.229,300.211L117.884,299.449L118.539,298.694L119.194,297.948L119.849,297.211L120.505,296.482L121.16,295.763L121.815,295.054L122.47,294.354L123.126,293.665L123.781,292.985L124.436,292.316L125.091,291.656L125.746,291.007L126.402,290.366L127.057,289.735L127.712,289.112L128.367,288.497L129.023,287.889L129.678,287.287L130.333,286.691L130.988,286.1L131.644,285.512L132.299,284.926L132.954,284.341L133.609,283.756L134.264,283.169L134.92,282.578L135.575,281.983L136.23,281.382L136.885,280.772L137.541,280.152L138.196,279.521L138.851,278.876L139.506,278.216L140.161,277.538L140.817,276.842L141.472,276.124L142.127,275.383L142.782,274.617L143.438,273.825L144.093,273.003L144.748,272.151L145.403,271.267L146.058,270.349L146.714,269.395L147.369,268.404L148.024,267.375L148.679,266.305L149.335,265.193L149.99,264.04L150.645,262.842L151.3,261.6L151.955,260.312L152.611,258.979L153.266,257.598L153.921,256.171L154.576,254.697L155.232,253.175L155.887,251.606L156.542,249.991L157.197,248.329L157.852,246.621L158.508,244.869L159.163,243.072L159.818,241.233L160.473,239.352L161.129,237.432L161.784,235.473L162.439,233.478L163.094,231.448L163.749,229.386L164.405,227.295L165.06,225.175L165.715,223.031L166.37,220.865L167.026,218.679L167.681,216.477L168.336,214.262L168.991,212.036L169.646,209.804L170.302,207.568L170.957,205.331L171.612,203.097L172.267,200.87L172.923,198.652L173.578,196.448L174.233,194.26L174.888,192.093L175.544,189.949L176.199,187.831L176.854,185.744L177.509,183.69L178.164,181.672L178.82,179.694L179.475,177.758L180.13,175.867L180.785,174.024L181.441,172.231L182.096,170.491L182.751,168.806L183.406,167.178L184.061,165.61L184.717,164.102L185.372,162.656L186.027,161.275L186.682,159.958L187.338,158.708L187.993,157.524L188.648,156.409L189.303,155.361L189.958,154.382L190.614,153.471L191.269,152.629L191.924,151.855L192.579,151.149L193.235,150.51L193.89,149.937L194.545,149.43L195.2,148.988L195.855,148.608L196.511,148.291L197.166,148.033L197.821,147.835L198.476,147.694L199.132,147.608L199.787,147.575L200.442,147.594L201.097,147.662L201.752,147.778L202.408,147.938L203.063,148.142L203.718,148.387L204.373,148.67L205.029,148.989L205.684,149.343L206.339,149.728L206.994,150.144L207.649,150.587L208.305,151.056L208.96,151.548L209.615,152.062L210.27,152.596L210.926,153.148L211.581,153.716L212.236,154.298L212.891,154.893L213.546,155.5L214.202,156.116L214.857,156.742L215.512,157.375L216.167,158.014L216.823,158.659L217.478,159.309L218.133,159.963L218.788,160.619L219.444,161.279L220.099,161.94L220.754,162.603L221.409,163.268L222.064,163.934L222.72,164.601L223.375,165.27L224.03,165.939L224.685,166.61L225.341,167.283L225.996,167.957L226.651,168.633L227.306,169.311L227.961,169.993L228.617,170.677L229.272,171.365L229.927,172.056L230.582,172.753L231.238,173.454L231.893,174.16L232.548,174.872L233.203,175.591L233.858,176.317L234.514,177.05L235.169,177.79L235.824,178.538L236.479,179.295L237.135,180.061L237.79,180.836L238.445,181.619L239.1,182.413L239.755,183.216L240.411,184.028L241.066,184.851L241.721,185.683L242.376,186.524L243.032,187.376L243.687,188.237L244.342,189.107L244.997,189.986L245.652,190.874L246.308,191.77L246.963,192.674L247.618,193.585L248.273,194.503L248.929,195.428L249.584,196.358L250.239,197.294L250.894,198.235L251.549,199.179L252.205,200.126L252.86,201.076L253.515,202.028L254.17,202.98L254.826,203.933L255.481,204.885L256.136,205.835L256.791,206.784L257.446,207.729L258.102,208.671L258.757,209.608L259.412,210.54L260.067,211.466L260.723,212.385L261.378,213.296L262.033,214.2L262.688,215.095L263.344,215.981L263.999,216.857L264.654,217.722L265.309,218.577L265.964,219.42L266.62,220.253L267.275,221.073L267.93,221.881L268.585,222.677L269.241,223.46L269.896,224.231L270.551,224.989L271.206,225.734L271.861,226.468L272.517,227.188L273.172,227.897L273.827,228.594L274.482,229.279L275.138,229.954L275.793,230.617L276.448,231.271L277.103,231.914L277.758,232.549L278.414,233.175L279.069,233.793L279.724,234.404L280.379,235.009L281.035,235.609L281.69,236.204L282.345,236.794L283,237.382L283.655,237.968L284.311,238.552L284.966,239.137L285.621,239.722L286.276,240.308L286.932,240.897L287.587,241.49L288.242,242.086L288.897,242.688L289.552,243.296L290.208,243.912L290.863,244.535L291.518,245.166L292.173,245.807L292.829,246.458L293.484,247.12L294.139,247.794L294.794,248.479L295.449,249.178L296.105,249.89L296.76,250.615L297.415,251.355L298.07,252.109L298.726,252.878L299.381,253.662L300.036,254.461L300.691,255.276L301.346,256.107L302.002,256.953L302.657,257.814L303.312,258.692L303.967,259.584L304.623,260.492L305.278,261.415L305.933,262.353L306.588,263.305L307.244,264.271L307.899,265.251L308.554,266.244L309.209,267.249L309.864,268.267L310.52,269.297L311.175,270.337L311.83,271.387L312.485,272.447L313.141,273.517L313.796,274.594L314.451,275.679L315.106,276.77L315.761,277.868L316.417,278.97L317.072,280.078L317.727,281.188L318.382,282.302L319.038,283.417L319.693,284.533L320.348,285.65L321.003,286.767L321.658,287.882L322.314,288.994L322.969,290.104L323.624,291.211L324.279,292.312L324.935,293.409L325.59,294.5L326.245,295.584L326.9,296.66L327.555,297.728L328.211,298.788L328.866,299.838L329.521,300.878L330.176,301.907L330.832,302.925L331.487,303.931L332.142,304.925L332.797,305.905L333.452,306.873L334.108,307.826L334.763,308.765L335.418,309.689L336.073,310.597L336.729,311.491L337.384,312.368L338.039,313.229L338.694,314.073L339.349,314.901L340.005,315.712L340.66,316.505L341.315,317.281L341.97,318.039L342.626,318.779L343.281,319.502L343.936,320.206L344.591,320.893L345.247,321.562L345.902,322.212L346.557,322.844L347.212,323.459L347.867,324.055L348.523,324.634L349.178,325.195L349.833,325.738L350.488,326.264L351.144,326.772L351.799,327.263L352.454,327.738L353.109,328.195L353.764,328.636L354.42,329.061L355.075,329.47L355.73,329.864L356.385,330.241L357.041,330.604L357.696,330.952L358.351,331.286L359.006,331.605L359.661,331.911L360.317,332.203L360.972,332.482L361.627,332.749L362.282,333.003L362.938,333.245L363.593,333.475L364.248,333.694L364.903,333.902L365.558,334.1L366.214,334.288L366.869,334.466L367.524,334.634L368.179,334.793L368.835,334.944L369.49,335.086L370.145,335.22L370.8,335.347L371.455,335.466L372.111,335.578L372.766,335.683L373.421,335.782L374.076,335.875L374.732,335.962L375.387,336.044L376.042,336.12L376.697,336.191L377.352,336.258L378.008,336.32L378.663,336.378L379.318,336.432L379.973,336.483L380.629,336.529L381.284,336.573L381.939,336.613L382.594,336.65L383.249,336.685L383.905,336.717L384.56,336.747L385.215,336.774L385.87,336.799L386.526,336.823L387.181,336.844L387.836,336.864L388.491,336.882L389.147,336.898L389.802,336.914L390.457,336.928" fill="none" stroke="#12239E" stroke-width="2" stroke-linejoin="round" opacity="1"></path><path class="ggpbi-density-area" d="M57.161,336.955L57.985,336.941L58.809,336.925L59.633,336.908L60.457,336.888L61.281,336.867L62.105,336.844L62.929,336.818L63.753,336.79L64.577,336.759L65.401,336.725L66.225,336.688L67.049,336.648L67.873,336.604L68.698,336.556L69.522,336.505L70.346,336.448L71.17,336.388L71.994,336.322L72.818,336.252L73.642,336.177L74.466,336.095L75.29,336.009L76.114,335.916L76.938,335.817L77.762,335.712L78.586,335.601L79.41,335.482L80.234,335.357L81.058,335.225L81.882,335.086L82.706,334.94L83.53,334.787L84.354,334.626L85.178,334.459L86.002,334.284L86.826,334.103L87.65,333.915L88.474,333.72L89.298,333.519L90.122,333.311L90.946,333.098L91.77,332.88L92.594,332.657L93.418,332.429L94.242,332.197L95.066,331.962L95.89,331.724L96.714,331.484L97.538,331.243L98.362,331L99.186,330.758L100.01,330.517L100.834,330.277L101.658,330.04L102.482,329.806L103.306,329.576L104.13,329.351L104.954,329.133L105.778,328.921L106.602,328.717L107.426,328.521L108.25,328.335L109.074,328.158L109.898,327.993L110.722,327.839L111.546,327.698L112.37,327.569L113.194,327.454L114.018,327.352L114.842,327.265L115.666,327.193L116.49,327.136L117.314,327.093L118.138,327.066L118.962,327.054L119.786,327.058L120.61,327.076L121.434,327.11L122.258,327.157L123.082,327.219L123.906,327.295L124.73,327.384L125.554,327.485L126.378,327.598L127.202,327.722L128.026,327.855L128.85,327.998L129.674,328.149L130.498,328.307L131.322,328.471L132.146,328.64L132.97,328.812L133.794,328.986L134.618,329.162L135.442,329.337L136.266,329.51L137.09,329.681L137.914,329.847L138.738,330.007L139.562,330.16L140.386,330.304L141.21,330.439L142.034,330.562L142.858,330.672L143.682,330.768L144.506,330.849L145.33,330.912L146.154,330.958L146.978,330.984L147.802,330.989L148.626,330.972L149.45,330.931L150.274,330.866L151.098,330.775L151.922,330.658L152.746,330.512L153.57,330.338L154.394,330.133L155.218,329.897L156.042,329.628L156.866,329.327L157.69,328.992L158.514,328.622L159.338,328.217L160.162,327.776L160.986,327.297L161.81,326.781L162.634,326.228L163.458,325.636L164.282,325.005L165.106,324.335L165.93,323.625L166.754,322.877L167.578,322.088L168.402,321.261L169.226,320.394L170.05,319.488L170.874,318.543L171.698,317.56L172.522,316.54L173.346,315.482L174.17,314.388L174.994,313.258L175.818,312.094L176.642,310.897L177.466,309.667L178.29,308.407L179.114,307.116L179.938,305.798L180.762,304.454L181.586,303.084L182.41,301.691L183.234,300.277L184.058,298.843L184.882,297.392L185.706,295.925L186.53,294.444L187.354,292.952L188.178,291.45L189.002,289.94L189.826,288.425L190.65,286.906L191.474,285.385L192.298,283.865L193.122,282.346L193.946,280.831L194.77,279.322L195.594,277.819L196.418,276.324L197.242,274.84L198.066,273.366L198.89,271.903L199.714,270.453L200.538,269.017L201.362,267.594L202.186,266.186L203.01,264.792L203.834,263.412L204.658,262.045L205.482,260.693L206.306,259.353L207.13,258.026L207.954,256.709L208.778,255.402L209.602,254.104L210.426,252.813L211.25,251.527L212.074,250.245L212.898,248.964L213.722,247.682L214.546,246.398L215.37,245.108L216.194,243.812L217.018,242.505L217.842,241.187L218.666,239.854L219.49,238.504L220.314,237.134L221.138,235.744L221.962,234.329L222.786,232.889L223.61,231.421L224.434,229.924L225.258,228.396L226.082,226.835L226.906,225.241L227.73,223.613L228.554,221.949L229.378,220.25L230.202,218.515L231.026,216.745L231.85,214.94L232.674,213.101L233.498,211.23L234.322,209.327L235.146,207.395L235.97,205.436L236.794,203.453L237.618,201.448L238.442,199.424L239.266,197.386L240.09,195.337L240.914,193.281L241.738,191.222L242.562,189.166L243.386,187.116L244.21,185.078L245.034,183.058L245.858,181.059L246.682,179.089L247.506,177.152L248.33,175.253L249.154,173.399L249.978,171.594L250.802,169.844L251.626,168.154L252.45,166.529L253.274,164.974L254.098,163.494L254.922,162.093L255.746,160.775L256.57,159.544L257.394,158.403L258.218,157.356L259.042,156.405L259.866,155.553L260.69,154.801L261.514,154.15L262.338,153.603L263.162,153.159L263.986,152.818L264.81,152.58L265.634,152.445L266.458,152.411L267.282,152.477L268.106,152.641L268.93,152.9L269.754,153.252L270.578,153.694L271.402,154.223L272.226,154.834L273.05,155.526L273.874,156.293L274.698,157.131L275.522,158.037L276.346,159.005L277.17,160.033L277.994,161.115L278.818,162.248L279.642,163.426L280.466,164.647L281.29,165.905L282.114,167.198L282.938,168.521L283.762,169.87L284.586,171.243L285.41,172.637L286.234,174.048L287.058,175.474L287.882,176.912L288.706,178.36L289.53,179.817L290.354,181.281L291.178,182.75L292.002,184.223L292.826,185.699L293.65,187.178L294.474,188.658L295.298,190.139L296.122,191.621L296.946,193.103L297.77,194.586L298.594,196.069L299.418,197.552L300.243,199.036L301.067,200.519L301.891,202.003L302.715,203.488L303.539,204.972L304.363,206.457L305.187,207.941L306.011,209.425L306.835,210.907L307.659,212.388L308.483,213.868L309.307,215.344L310.131,216.816L310.955,218.284L311.779,219.745L312.603,221.2L313.427,222.647L314.251,224.083L315.075,225.509L315.899,226.922L316.723,228.321L317.547,229.704L318.371,231.07L319.195,232.418L320.019,233.745L320.843,235.05L321.667,236.333L322.491,237.591L323.315,238.823L324.139,240.029L324.963,241.207L325.787,242.357L326.611,243.478L327.435,244.57L328.259,245.631L329.083,246.662L329.907,247.663L330.731,248.634L331.555,249.575L332.379,250.487L333.203,251.37L334.027,252.225L334.851,253.053L335.675,253.854L336.499,254.631L337.323,255.384L338.147,256.114L338.971,256.822L339.795,257.511L340.619,258.18L341.443,258.832L342.267,259.468L343.091,260.088L343.915,260.695L344.739,261.289L345.563,261.871L346.387,262.442L347.211,263.004L348.035,263.555L348.859,264.098L349.683,264.631L350.507,265.157L351.331,265.673L352.155,266.182L352.979,266.681L353.803,267.171L354.627,267.652L355.451,268.121L356.275,268.58L357.099,269.027L357.923,269.46L358.747,269.879L359.571,270.284L360.395,270.671L361.219,271.042L362.043,271.393L362.867,271.725L363.691,272.037L364.515,272.326L365.339,272.594L366.163,272.838L366.987,273.058L367.811,273.253L368.635,273.424L369.459,273.571L370.283,273.693L371.107,273.79L371.931,273.864L372.755,273.915L373.579,273.944L374.403,273.952L375.227,273.941L376.051,273.912L376.875,273.868L377.699,273.81L378.523,273.74L379.347,273.662L380.171,273.577L380.995,273.489L381.819,273.401L382.643,273.315L383.467,273.234L384.291,273.162L385.115,273.103L385.939,273.058L386.763,273.032L387.587,273.028L388.411,273.048L389.235,273.096L390.059,273.175L390.883,273.287L391.707,273.434L392.531,273.62L393.355,273.846L394.179,274.115L395.003,274.428L395.827,274.787L396.651,275.192L397.475,275.645L398.299,276.147L399.123,276.697L399.947,277.297L400.771,277.945L401.595,278.642L402.419,279.386L403.243,280.177L404.067,281.014L404.891,281.895L405.715,282.819L406.539,283.783L407.363,284.785L408.187,285.824L409.011,286.896L409.835,288L410.659,289.132L411.483,290.291L412.307,291.472L413.131,292.673L413.955,293.891L414.779,295.123L415.603,296.366L416.427,297.618L417.251,298.874L418.075,300.133L418.899,301.392L419.723,302.647L420.547,303.896L421.371,305.136L422.195,306.365L423.019,307.582L423.843,308.782L424.667,309.965L425.491,311.129L426.315,312.271L427.139,313.39L427.963,314.485L428.787,315.554L429.611,316.596L430.435,317.61L431.259,318.596L432.083,319.552L432.907,320.477L433.731,321.372L434.555,322.236L435.379,323.068L436.203,323.87L437.027,324.639L437.851,325.378L438.675,326.086L439.499,326.762L440.323,327.409L441.147,328.025L441.971,328.613L442.795,329.171L443.619,329.701L444.443,330.204L445.267,330.68L446.091,331.131L446.915,331.556L447.739,331.956L448.563,332.334L449.387,332.689L450.211,333.022L451.035,333.334L451.859,333.627L452.683,333.901L453.507,334.156L454.331,334.394L455.155,334.616L455.979,334.822L456.803,335.013L457.627,335.191L458.451,335.355L459.275,335.507L460.099,335.647L460.923,335.777L461.747,335.896L462.571,336.005L463.395,336.106L464.219,336.198L465.043,336.282L465.867,336.359L466.691,336.429L467.515,336.494L468.339,336.552L469.163,336.605L469.987,336.653L470.811,336.697L471.635,336.736L472.459,336.772L473.283,336.804L474.107,336.833L474.931,336.859L475.755,336.882L476.579,336.903L477.403,336.922L478.227,336.939L478.227,337.065L477.403,337.065L476.579,337.065L475.755,337.065L474.931,337.065L474.107,337.065L473.283,337.065L472.459,337.065L471.635,337.065L470.811,337.065L469.987,337.065L469.163,337.065L468.339,337.065L467.515,337.065L466.691,337.065L465.867,337.065L465.043,337.065L464.219,337.065L463.395,337.065L462.571,337.065L461.747,337.065L460.923,337.065L460.099,337.065L459.275,337.065L458.451,337.065L457.627,337.065L456.803,337.065L455.979,337.065L455.155,337.065L454.331,337.065L453.507,337.065L452.683,337.065L451.859,337.065L451.035,337.065L450.211,337.065L449.387,337.065L448.563,337.065L447.739,337.065L446.915,337.065L446.091,337.065L445.267,337.065L444.443,337.065L443.619,337.065L442.795,337.065L441.971,337.065L441.147,337.065L440.323,337.065L439.499,337.065L438.675,337.065L437.851,337.065L437.027,337.065L436.203,337.065L435.379,337.065L434.555,337.065L433.731,337.065L432.907,337.065L432.083,337.065L431.259,337.065L430.435,337.065L429.611,337.065L428.787,337.065L427.963,337.065L427.139,337.065L426.315,337.065L425.491,337.065L424.667,337.065L423.843,337.065L423.019,337.065L422.195,337.065L421.371,337.065L420.547,337.065L419.723,337.065L418.899,337.065L418.075,337.065L417.251,337.065L416.427,337.065L415.603,337.065L414.779,337.065L413.955,337.065L413.131,337.065L412.307,337.065L411.483,337.065L410.659,337.065L409.835,337.065L409.011,337.065L408.187,337.065L407.363,337.065L406.539,337.065L405.715,337.065L404.891,337.065L404.067,337.065L403.243,337.065L402.419,337.065L401.595,337.065L400.771,337.065L399.947,337.065L399.123,337.065L398.299,337.065L397.475,337.065L396.651,337.065L395.827,337.065L395.003,337.065L394.179,337.065L393.355,337.065L392.531,337.065L391.707,337.065L390.883,337.065L390.059,337.065L389.235,337.065L388.411,337.065L387.587,337.065L386.763,337.065L385.939,337.065L385.115,337.065L384.291,337.065L383.467,337.065L382.643,337.065L381.819,337.065L380.995,337.065L380.171,337.065L379.347,337.065L378.523,337.065L377.699,337.065L376.875,337.065L376.051,337.065L375.227,337.065L374.403,337.065L373.579,337.065L372.755,337.065L371.931,337.065L371.107,337.065L370.283,337.065L369.459,337.065L368.635,337.065L367.811,337.065L366.987,337.065L366.163,337.065L365.339,337.065L364.515,337.065L363.691,337.065L362.867,337.065L362.043,337.065L361.219,337.065L360.395,337.065L359.571,337.065L358.747,337.065L357.923,337.065L357.099,337.065L356.275,337.065L355.451,337.065L354.627,337.065L353.803,337.065L352.979,337.065L352.155,337.065L351.331,337.065L350.507,337.065L349.683,337.065L348.859,337.065L348.035,337.065L347.211,337.065L346.387,337.065L345.563,337.065L344.739,337.065L343.915,337.065L343.091,337.065L342.267,337.065L341.443,337.065L340.619,337.065L339.795,337.065L338.971,337.065L338.147,337.065L337.323,337.065L336.499,337.065L335.675,337.065L334.851,337.065L334.027,337.065L333.203,337.065L332.379,337.065L331.555,337.065L330.731,337.065L329.907,337.065L329.083,337.065L328.259,337.065L327.435,337.065L326.611,337.065L325.787,337.065L324.963,337.065L324.139,337.065L323.315,337.065L322.491,337.065L321.667,337.065L320.843,337.065L320.019,337.065L319.195,337.065L318.371,337.065L317.547,337.065L316.723,337.065L315.899,337.065L315.075,337.065L314.251,337.065L313.427,337.065L312.603,337.065L311.779,337.065L310.955,337.065L310.131,337.065L309.307,337.065L308.483,337.065L307.659,337.065L306.835,337.065L306.011,337.065L305.187,337.065L304.363,337.065L303.539,337.065L302.715,337.065L301.891,337.065L301.067,337.065L300.243,337.065L299.418,337.065L298.594,337.065L297.77,337.065L296.946,337.065L296.122,337.065L295.298,337.065L294.474,337.065L293.65,337.065L292.826,337.065L292.002,337.065L291.178,337.065L290.354,337.065L289.53,337.065L288.706,337.065L287.882,337.065L287.058,337.065L286.234,337.065L285.41,337.065L284.586,337.065L283.762,337.065L282.938,337.065L282.114,337.065L281.29,337.065L280.466,337.065L279.642,337.065L278.818,337.065L277.994,337.065L277.17,337.065L276.346,337.065L275.522,337.065L274.698,337.065L273.874,337.065L273.05,337.065L272.226,337.065L271.402,337.065L270.578,337.065L269.754,337.065L268.93,337.065L268.106,337.065L267.282,337.065L266.458,337.065L265.634,337.065L264.81,337.065L263.986,337.065L263.162,337.065L262.338,337.065L261.514,337.065L260.69,337.065L259.866,337.065L259.042,337.065L258.218,337.065L257.394,337.065L256.57,337.065L255.746,337.065L254.922,337.065L254.098,337.065L253.274,337.065L252.45,337.065L251.626,337.065L250.802,337.065L249.978,337.065L249.154,337.065L248.33,337.065L247.506,337.065L246.682,337.065L245.858,337.065L245.034,337.065L244.21,337.065L243.386,337.065L242.562,337.065L241.738,337.065L240.914,337.065L240.09,337.065L239.266,337.065L238.442,337.065L237.618,337.065L236.794,337.065L235.97,337.065L235.146,337.065L234.322,337.065L233.498,337.065L232.674,337.065L231.85,337.065L231.026,337.065L230.202,337.065L229.378,337.065L228.554,337.065L227.73,337.065L226.906,337.065L226.082,337.065L225.258,337.065L224.434,337.065L223.61,337.065L222.786,337.065L221.962,337.065L221.138,337.065L220.314,337.065L219.49,337.065L218.666,337.065L217.842,337.065L217.018,337.065L216.194,337.065L215.37,337.065L214.546,337.065L213.722,337.065L212.898,337.065L212.074,337.065L211.25,337.065L210.426,337.065L209.602,337.065L208.778,337.065L207.954,337.065L207.13,337.065L206.306,337.065L205.482,337.065L204.658,337.065L203.834,337.065L203.01,337.065L202.186,337.065L201.362,337.065L200.538,337.065L199.714,337.065L198.89,337.065L198.066,337.065L197.242,337.065L196.418,337.065L195.594,337.065L194.77,337.065L193.946,337.065L193.122,337.065L192.298,337.065L191.474,337.065L190.65,337.065L189.826,337.065L189.002,337.065L188.178,337.065L187.354,337.065L186.53,337.065L185.706,337.065L184.882,337.065L184.058,337.065L183.234,337.065L182.41,337.065L181.586,337.065L180.762,337.065L179.938,337.065L179.114,337.065L178.29,337.065L177.466,337.065L176.642,337.065L175.818,337.065L174.994,337.065L174.17,337.065L173.346,337.065L172.522,337.065L171.698,337.065L170.874,337.065L170.05,337.065L169.226,337.065L168.402,337.065L167.578,337.065L166.754,337.065L165.93,337.065L165.106,337.065L164.282,337.065L163.458,337.065L162.634,337.065L161.81,337.065L160.986,337.065L160.162,337.065L159.338,337.065L158.514,337.065L157.69,337.065L156.866,337.065L156.042,337.065L155.218,337.065L154.394,337.065L153.57,337.065L152.746,337.065L151.922,337.065L151.098,337.065L150.274,337.065L149.45,337.065L148.626,337.065L147.802,337.065L146.978,337.065L146.154,337.065L145.33,337.065L144.506,337.065L143.682,337.065L142.858,337.065L142.034,337.065L141.21,337.065L140.386,337.065L139.562,337.065L138.738,337.065L137.914,337.065L137.09,337.065L136.266,337.065L135.442,337.065L134.618,337.065L133.794,337.065L132.97,337.065L132.146,337.065L131.322,337.065L130.498,337.065L129.674,337.065L128.85,337.065L128.026,337.065L127.202,337.065L126.378,337.065L125.554,337.065L124.73,337.065L123.906,337.065L123.082,337.065L122.258,337.065L121.434,337.065L120.61,337.065L119.786,337.065L118.962,337.065L118.138,337.065L117.314,337.065L116.49,337.065L115.666,337.065L114.842,337.065L114.018,337.065L113.194,337.065L112.37,337.065L111.546,337.065L110.722,337.065L109.898,337.065L109.074,337.065L108.25,337.065L107.426,337.065L106.602,337.065L105.778,337.065L104.954,337.065L104.13,337.065L103.306,337.065L102.482,337.065L101.658,337.065L100.834,337.065L100.01,337.065L99.186,337.065L98.362,337.065L97.538,337.065L96.714,337.065L95.89,337.065L95.066,337.065L94.242,337.065L93.418,337.065L92.594,337.065L91.77,337.065L90.946,337.065L90.122,337.065L89.298,337.065L88.474,337.065L87.65,337.065L86.826,337.065L86.002,337.065L85.178,337.065L84.354,337.065L83.53,337.065L82.706,337.065L81.882,337.065L81.058,337.065L80.234,337.065L79.41,337.065L78.586,337.065L77.762,337.065L76.938,337.065L76.114,337.065L75.29,337.065L74.466,337.065L73.642,337.065L72.818,337.065L71.994,337.065L71.17,337.065L70.346,337.065L69.522,337.065L68.698,337.065L67.873,337.065L67.049,337.065L66.225,337.065L65.401,337.065L64.577,337.065L63.753,337.065L62.929,337.065L62.105,337.065L61.281,337.065L60.457,337.065L59.633,337.065L58.809,337.065L57.985,337.065L57.161,337.065Z" fill="#E66C37" opacity="0.3"></path><path class="ggpbi-density" d="M57.161,336.955L57.985,336.941L58.809,336.925L59.633,336.908L60.457,336.888L61.281,336.867L62.105,336.844L62.929,336.818L63.753,336.79L64.577,336.759L65.401,336.725L66.225,336.688L67.049,336.648L67.873,336.604L68.698,336.556L69.522,336.505L70.346,336.448L71.17,336.388L71.994,336.322L72.818,336.252L73.642,336.177L74.466,336.095L75.29,336.009L76.114,335.916L76.938,335.817L77.762,335.712L78.586,335.601L79.41,335.482L80.234,335.357L81.058,335.225L81.882,335.086L82.706,334.94L83.53,334.787L84.354,334.626L85.178,334.459L86.002,334.284L86.826,334.103L87.65,333.915L88.474,333.72L89.298,333.519L90.122,333.311L90.946,333.098L91.77,332.88L92.594,332.657L93.418,332.429L94.242,332.197L95.066,331.962L95.89,331.724L96.714,331.484L97.538,331.243L98.362,331L99.186,330.758L100.01,330.517L100.834,330.277L101.658,330.04L102.482,329.806L103.306,329.576L104.13,329.351L104.954,329.133L105.778,328.921L106.602,328.717L107.426,328.521L108.25,328.335L109.074,328.158L109.898,327.993L110.722,327.839L111.546,327.698L112.37,327.569L113.194,327.454L114.018,327.352L114.842,327.265L115.666,327.193L116.49,327.136L117.314,327.093L118.138,327.066L118.962,327.054L119.786,327.058L120.61,327.076L121.434,327.11L122.258,327.157L123.082,327.219L123.906,327.295L124.73,327.384L125.554,327.485L126.378,327.598L127.202,327.722L128.026,327.855L128.85,327.998L129.674,328.149L130.498,328.307L131.322,328.471L132.146,328.64L132.97,328.812L133.794,328.986L134.618,329.162L135.442,329.337L136.266,329.51L137.09,329.681L137.914,329.847L138.738,330.007L139.562,330.16L140.386,330.304L141.21,330.439L142.034,330.562L142.858,330.672L143.682,330.768L144.506,330.849L145.33,330.912L146.154,330.958L146.978,330.984L147.802,330.989L148.626,330.972L149.45,330.931L150.274,330.866L151.098,330.775L151.922,330.658L152.746,330.512L153.57,330.338L154.394,330.133L155.218,329.897L156.042,329.628L156.866,329.327L157.69,328.992L158.514,328.622L159.338,328.217L160.162,327.776L160.986,327.297L161.81,326.781L162.634,326.228L163.458,325.636L164.282,325.005L165.106,324.335L165.93,323.625L166.754,322.877L167.578,322.088L168.402,321.261L169.226,320.394L170.05,319.488L170.874,318.543L171.698,317.56L172.522,316.54L173.346,315.482L174.17,314.388L174.994,313.258L175.818,312.094L176.642,310.897L177.466,309.667L178.29,308.407L179.114,307.116L179.938,305.798L180.762,304.454L181.586,303.084L182.41,301.691L183.234,300.277L184.058,298.843L184.882,297.392L185.706,295.925L186.53,294.444L187.354,292.952L188.178,291.45L189.002,289.94L189.826,288.425L190.65,286.906L191.474,285.385L192.298,283.865L193.122,282.346L193.946,280.831L194.77,279.322L195.594,277.819L196.418,276.324L197.242,274.84L198.066,273.366L198.89,271.903L199.714,270.453L200.538,269.017L201.362,267.594L202.186,266.186L203.01,264.792L203.834,263.412L204.658,262.045L205.482,260.693L206.306,259.353L207.13,258.026L207.954,256.709L208.778,255.402L209.602,254.104L210.426,252.813L211.25,251.527L212.074,250.245L212.898,248.964L213.722,247.682L214.546,246.398L215.37,245.108L216.194,243.812L217.018,242.505L217.842,241.187L218.666,239.854L219.49,238.504L220.314,237.134L221.138,235.744L221.962,234.329L222.786,232.889L223.61,231.421L224.434,229.924L225.258,228.396L226.082,226.835L226.906,225.241L227.73,223.613L228.554,221.949L229.378,220.25L230.202,218.515L231.026,216.745L231.85,214.94L232.674,213.101L233.498,211.23L234.322,209.327L235.146,207.395L235.97,205.436L236.794,203.453L237.618,201.448L238.442,199.424L239.266,197.386L240.09,195.337L240.914,193.281L241.738,191.222L242.562,189.166L243.386,187.116L244.21,185.078L245.034,183.058L245.858,181.059L246.682,179.089L247.506,177.152L248.33,175.253L249.154,173.399L249.978,171.594L250.802,169.844L251.626,168.154L252.45,166.529L253.274,164.974L254.098,163.494L254.922,162.093L255.746,160.775L256.57,159.544L257.394,158.403L258.218,157.356L259.042,156.405L259.866,155.553L260.69,154.801L261.514,154.15L262.338,153.603L263.162,153.159L263.986,152.818L264.81,152.58L265.634,152.445L266.458,152.411L267.282,152.477L268.106,152.641L268.93,152.9L269.754,153.252L270.578,153.694L271.402,154.223L272.226,154.834L273.05,155.526L273.874,156.293L274.698,157.131L275.522,158.037L276.346,159.005L277.17,160.033L277.994,161.115L278.818,162.248L279.642,163.426L280.466,164.647L281.29,165.905L282.114,167.198L282.938,168.521L283.762,169.87L284.586,171.243L285.41,172.637L286.234,174.048L287.058,175.474L287.882,176.912L288.706,178.36L289.53,179.817L290.354,181.281L291.178,182.75L292.002,184.223L292.826,185.699L293.65,187.178L294.474,188.658L295.298,190.139L296.122,191.621L296.946,193.103L297.77,194.586L298.594,196.069L299.418,197.552L300.243,199.036L301.067,200.519L301.891,202.003L302.715,203.488L303.539,204.972L304.363,206.457L305.187,207.941L306.011,209.425L306.835,210.907L307.659,212.388L308.483,213.868L309.307,215.344L310.131,216.816L310.955,218.284L311.779,219.745L312.603,221.2L313.427,222.647L314.251,224.083L315.075,225.509L315.899,226.922L316.723,228.321L317.547,229.704L318.371,231.07L319.195,232.418L320.019,233.745L320.843,235.05L321.667,236.333L322.491,237.591L323.315,238.823L324.139,240.029L324.963,241.207L325.787,242.357L326.611,243.478L327.435,244.57L328.259,245.631L329.083,246.662L329.907,247.663L330.731,248.634L331.555,249.575L332.379,250.487L333.203,251.37L334.027,252.225L334.851,253.053L335.675,253.854L336.499,254.631L337.323,255.384L338.147,256.114L338.971,256.822L339.795,257.511L340.619,258.18L341.443,258.832L342.267,259.468L343.091,260.088L343.915,260.695L344.739,261.289L345.563,261.871L346.387,262.442L347.211,263.004L348.035,263.555L348.859,264.098L349.683,264.631L350.507,265.157L351.331,265.673L352.155,266.182L352.979,266.681L353.803,267.171L354.627,267.652L355.451,268.121L356.275,268.58L357.099,269.027L357.923,269.46L358.747,269.879L359.571,270.284L360.395,270.671L361.219,271.042L362.043,271.393L362.867,271.725L363.691,272.037L364.515,272.326L365.339,272.594L366.163,272.838L366.987,273.058L367.811,273.253L368.635,273.424L369.459,273.571L370.283,273.693L371.107,273.79L371.931,273.864L372.755,273.915L373.579,273.944L374.403,273.952L375.227,273.941L376.051,273.912L376.875,273.868L377.699,273.81L378.523,273.74L379.347,273.662L380.171,273.577L380.995,273.489L381.819,273.401L382.643,273.315L383.467,273.234L384.291,273.162L385.115,273.103L385.939,273.058L386.763,273.032L387.587,273.028L388.411,273.048L389.235,273.096L390.059,273.175L390.883,273.287L391.707,273.434L392.531,273.62L393.355,273.846L394.179,274.115L395.003,274.428L395.827,274.787L396.651,275.192L397.475,275.645L398.299,276.147L399.123,276.697L399.947,277.297L400.771,277.945L401.595,278.642L402.419,279.386L403.243,280.177L404.067,281.014L404.891,281.895L405.715,282.819L406.539,283.783L407.363,284.785L408.187,285.824L409.011,286.896L409.835,288L410.659,289.132L411.483,290.291L412.307,291.472L413.131,292.673L413.955,293.891L414.779,295.123L415.603,296.366L416.427,297.618L417.251,298.874L418.075,300.133L418.899,301.392L419.723,302.647L420.547,303.896L421.371,305.136L422.195,306.365L423.019,307.582L423.843,308.782L424.667,309.965L425.491,311.129L426.315,312.271L427.139,313.39L427.963,314.485L428.787,315.554L429.611,316.596L430.435,317.61L431.259,318.596L432.083,319.552L432.907,320.477L433.731,321.372L434.555,322.236L435.379,323.068L436.203,323.87L437.027,324.639L437.851,325.378L438.675,326.086L439.499,326.762L440.323,327.409L441.147,328.025L441.971,328.613L442.795,329.171L443.619,329.701L444.443,330.204L445.267,330.68L446.091,331.131L446.915,331.556L447.739,331.956L448.563,332.334L449.387,332.689L450.211,333.022L451.035,333.334L451.859,333.627L452.683,333.901L453.507,334.156L454.331,334.394L455.155,334.616L455.979,334.822L456.803,335.013L457.627,335.191L458.451,335.355L459.275,335.507L460.099,335.647L460.923,335.777L461.747,335.896L462.571,336.005L463.395,336.106L464.219,336.198L465.043,336.282L465.867,336.359L466.691,336.429L467.515,336.494L468.339,336.552L469.163,336.605L469.987,336.653L470.811,336.697L471.635,336.736L472.459,336.772L473.283,336.804L474.107,336.833L474.931,336.859L475.755,336.882L476.579,336.903L477.403,336.922L478.227,336.939" fill="none" stroke="#E66C37" stroke-width="2" stroke-linejoin="round" opacity="1"></path></g></g><g class="ggpbi-axis-x" transform="translate(0,353)" fill="none" font-size="10" font-family="sans-serif" text-anchor="middle"><path class="domain" stroke="currentColor" d="M0.5,0.5H501.5" style="display: none;"></path><g class="tick" opacity="1" transform="translate(30.076375369869528,0)"><line stroke="currentColor" y2="2.75" style="stroke: rgb(92, 92, 92);"></line><text fill="currentColor" y="5.75" dy="0.71em" style="font-size: 8.8px; fill: rgb(112, 112, 112);">4</text></g><g class="tick" opacity="1" transform="translate(129.29220315845973,0)"><line stroke="currentColor" y2="2.75" style="stroke: rgb(92, 92, 92);"></line><text fill="currentColor" y="5.75" dy="0.71em" style="font-size: 8.8px; fill: rgb(112, 112, 112);">5</text></g><g class="tick" opacity="1" transform="translate(228.50803094704995,0)"><line stroke="currentColor" y2="2.75" style="stroke: rgb(92, 92, 92);"></line><text fill="currentColor" y="5.75" dy="0.71em" style="font-size: 8.8px; fill: rgb(112, 112, 112);">6</text></g><g class="tick" opacity="1" transform="translate(327.72385873564014,0)"><line stroke="currentColor" y2="2.75" style="stroke: rgb(92, 92, 92);"></line><text fill="currentColor" y="5.75" dy="0.71em" style="font-size: 8.8px; fill: rgb(112, 112, 112);">7</text></g><g class="tick" opacity="1" transform="translate(426.9396865242303,0)"><line stroke="currentColor" y2="2.75" style="stroke: rgb(92, 92, 92);"></line><text fill="currentColor" y="5.75" dy="0.71em" style="font-size: 8.8px; fill: rgb(112, 112, 112);">8</text></g></g><g class="ggpbi-axis-y" fill="none" font-size="10" font-family="sans-serif" text-anchor="end"><path class="domain" stroke="currentColor" d="M0.5,353.5V0.5" style="display: none;"></path><g class="tick" opacity="1" transform="translate(0,337.56528785466253)"><line stroke="currentColor" x2="-2.75" style="stroke: rgb(92, 92, 92);"></line><text fill="currentColor" x="-5.75" dy="0.32em" style="font-size: 8.8px; fill: rgb(112, 112, 112);">0.0</text></g><g class="tick" opacity="1" transform="translate(0,233.95414774878293)"><line stroke="currentColor" x2="-2.75" style="stroke: rgb(92, 92, 92);"></line><text fill="currentColor" x="-5.75" dy="0.32em" style="font-size: 8.8px; fill: rgb(112, 112, 112);">0.4</text></g><g class="tick" opacity="1" transform="translate(0,130.3430076429033)"><line stroke="currentColor" x2="-2.75" style="stroke: rgb(92, 92, 92);"></line><text fill="currentColor" x="-5.75" dy="0.32em" style="font-size: 8.8px; fill: rgb(112, 112, 112);">0.8</text></g><g class="tick" opacity="1" transform="translate(0,26.731867537023692)"><line stroke="currentColor" x2="-2.75" style="stroke: rgb(92, 92, 92);"></line><text fill="currentColor" x="-5.75" dy="0.32em" style="font-size: 8.8px; fill: rgb(112, 112, 112);">1.2</text></g></g><g class="ggpbi-legend" transform="translate(512, 0)"><text x="0" y="8.8" style="font-size: 8.8px; font-weight: 600; fill: rgb(51, 51, 51);">Species</text><g class="ggpbi-legend-entry" data-label="setosa" style="pointer-events: all; cursor: pointer;"><rect x="0" y="18.304000000000002" width="8.8" height="8.8" fill="#118DFF" rx="2"></rect><text x="13.200000000000001" y="25.344" style="font-size: 8.8px; fill: rgb(112, 112, 112);">setosa</text></g><g class="ggpbi-legend-entry" data-label="versicolor" style="pointer-events: all; cursor: pointer;"><rect x="0" y="34.144000000000005" width="8.8" height="8.8" fill="#12239E" rx="2"></rect><text x="13.200000000000001" y="41.184000000000005" style="font-size: 8.8px; fill: rgb(112, 112, 112);">versicolor</text></g><g class="ggpbi-legend-entry" data-label="virginica" style="pointer-events: all; cursor: pointer;"><rect x="0" y="49.98400000000001" width="8.8" height="8.8" fill="#E66C37" rx="2"></rect><text x="13.200000000000001" y="57.02400000000001" style="font-size: 8.8px; fill: rgb(112, 112, 112);">virginica</text></g></g></g></svg>
