<svg width="640" height="400" class="ggpbi-visual" role="img" aria-label="Chart" style="pointer-events: none; outline: none;" tabindex="0" xmlns="http://www.w3.org/2000/svg"><defs><clipPath id="ggpbi-clip-facet-0-2-21"><rect x="0" y="0" width="139.66666666666666" height="297"></rect></clipPath></defs><defs><clipPath id="ggpbi-clip-facet-0-1-20"><rect x="0" y="0" width="139.66666666666666" height="297"></rect></clipPath></defs><defs><clipPath id="ggpbi-clip-facet-0-0-19"><rect x="0" y="0" width="139.66666666666666" height="297"></rect></clipPath></defs><g transform="translate(42,11)"><g class="ggpbi-facet" transform="translate(0,0)"><text class="ggpbi-facet-strip-col" x="97.83333333333333" y="14" text-anchor="middle" style="font-size: 8.8px; fill: rgb(112, 112, 112);">4</text><g transform="translate(44,22)"><rect class="ggpbi-panel" width="139.66666666666666" height="297" fill="#EBEBEB"></rect><line class="ggpbi-grid-minor" x1="0" x2="139.66666666666666" y1="259.3723404255319" y2="259.3723404255319" stroke="#ffffff" stroke-width="0.25"></line><line class="ggpbi-grid-minor" x1="0" x2="139.66666666666666" y1="201.92553191489358" y2="201.92553191489358" stroke="#ffffff" stroke-width="0.25"></line><line class="ggpbi-grid-minor" x1="0" x2="139.66666666666666" y1="144.4787234042553" y2="144.4787234042553" stroke="#ffffff" stroke-width="0.25"></line><line class="ggpbi-grid-minor" x1="0" x2="139.66666666666666" y1="87.031914893617" y2="87.031914893617" stroke="#ffffff" stroke-width="0.25"></line><line class="ggpbi-grid-minor" x1="0" x2="139.66666666666666" y1="29.585106382978676" y2="29.585106382978676" stroke="#ffffff" stroke-width="0.25"></line><line class="ggpbi-grid-minor" y1="0" y2="297" x1="38.39120816965359" x2="38.39120816965359" stroke="#ffffff" stroke-width="0.25"></line><line class="ggpbi-grid-minor" y1="0" y2="297" x1="70.85597343932807" x2="70.85597343932807" stroke="#ffffff" stroke-width="0.25"></line><line class="ggpbi-grid-minor" y1="0" y2="297" x1="103.32073870900257" x2="103.32073870900257" stroke="#ffffff" stroke-width="0.25"></line><line class="ggpbi-grid" x1="0" x2="139.66666666666666" y1="288.09574468085106" y2="288.09574468085106" stroke="#ffffff" stroke-width="0.5"></line><line class="ggpbi-grid" x1="0" x2="139.66666666666666" y1="230.64893617021275" y2="230.64893617021275" stroke="#ffffff" stroke-width="0.5"></line><line class="ggpbi-grid" x1="0" x2="139.66666666666666" y1="173.20212765957447" y2="173.20212765957447" stroke="#ffffff" stroke-width="0.5"></line><line class="ggpbi-grid" x1="0" x2="139.66666666666666" y1="115.75531914893614" y2="115.75531914893614" stroke="#ffffff" stroke-width="0.5"></line><line class="ggpbi-grid" x1="0" x2="139.66666666666666" y1="58.30851063829784" y2="58.30851063829784" stroke="#ffffff" stroke-width="0.5"></line><line class="ggpbi-grid" x1="0" x2="139.66666666666666" y1="0.8617021276595113" y2="0.8617021276595113" stroke="#ffffff" stroke-width="0.5"></line><line class="ggpbi-grid" y1="0" y2="297" x1="22.158825534816334" x2="22.158825534816334" stroke="#ffffff" stroke-width="0.5"></line><line class="ggpbi-grid" y1="0" y2="297" x1="54.62359080449083" x2="54.62359080449083" stroke="#ffffff" stroke-width="0.5"></line><line class="ggpbi-grid" y1="0" y2="297" x1="87.08835607416533" x2="87.08835607416533" stroke="#ffffff" stroke-width="0.5"></line><line class="ggpbi-grid" y1="0" y2="297" x1="119.55312134383982" x2="119.55312134383982" stroke="#ffffff" stroke-width="0.5"></line><g class="ggpbi-geom-clip" clip-path="url(#ggpbi-clip-facet-0-0-19)"><g class="ggpbi-layer-point" role="list" aria-label="Data points"><path class="ggpbi-point" d="M4,0A4,4,0,1,1,-4,0A4,4,0,1,1,4,0" transform="translate(32.54755042111217,141.031914893617)" fill="#4682B4" opacity="0.8" role="listitem" tabindex="0" aria-label="2.32: 22.8" style="pointer-events: all; cursor: pointer;"></path><path class="ggpbi-point" d="M4,0A4,4,0,1,1,-4,0A4,4,0,1,1,4,0" transform="translate(60.79189620572898,122.64893617021275)" fill="#4682B4" opacity="0.8" role="listitem" tabindex="0" aria-label="3.19: 24.4" style="pointer-events: all; cursor: pointer;"></path><path class="ggpbi-point" d="M4,0A4,4,0,1,1,-4,0A4,4,0,1,1,4,0" transform="translate(59.493305594942,141.031914893617)" fill="#4682B4" opacity="0.8" role="listitem" tabindex="0" aria-label="3.15: 22.8" style="pointer-events: all; cursor: pointer;"></path><path class="ggpbi-point" d="M4,0A4,4,0,1,1,-4,0A4,4,0,1,1,4,0" transform="translate(28.651778588751238,30.734042553191465)" fill="#4682B4" opacity="0.8" role="listitem" tabindex="0" aria-label="2.2: 32.4" style="pointer-events: all; cursor: pointer;"></path><path class="ggpbi-point" d="M4,0A4,4,0,1,1,-4,0A4,4,0,1,1,4,0" transform="translate(9.659890905991652,53.712765957446805)" fill="#4682B4" opacity="0.8" role="listitem" tabindex="0" aria-label="1.615: 30.4" style="pointer-events: all; cursor: pointer;"></path><path class="ggpbi-point" d="M4,0A4,4,0,1,1,-4,0A4,4,0,1,1,4,0" transform="translate(16.802139265320044,13.499999999999956)" fill="#4682B4" opacity="0.8" role="listitem" tabindex="0" aria-label="1.835: 33.9" style="pointer-events: all; cursor: pointer;"></path><path class="ggpbi-point" d="M4,0A4,4,0,1,1,-4,0A4,4,0,1,1,4,0" transform="translate(37.25494138521497,155.96808510638294)" fill="#4682B4" opacity="0.8" role="listitem" tabindex="0" aria-label="2.465: 21.5" style="pointer-events: all; cursor: pointer;"></path><path class="ggpbi-point" d="M4,0A4,4,0,1,1,-4,0A4,4,0,1,1,4,0" transform="translate(20.048615792287496,89.32978723404248)" fill="#4682B4" opacity="0.8" role="listitem" tabindex="0" aria-label="1.935: 27.3" style="pointer-events: all; cursor: pointer;"></path><path class="ggpbi-point" d="M4,0A4,4,0,1,1,-4,0A4,4,0,1,1,4,0" transform="translate(26.703892672570767,104.26595744680849)" fill="#4682B4" opacity="0.8" role="listitem" tabindex="0" aria-label="2.14: 26" style="pointer-events: all; cursor: pointer;"></path><path class="ggpbi-point" d="M4,0A4,4,0,1,1,-4,0A4,4,0,1,1,4,0" transform="translate(6.348484848484851,53.712765957446805)" fill="#4682B4" opacity="0.8" role="listitem" tabindex="0" aria-label="1.513: 30.4" style="pointer-events: all; cursor: pointer;"></path><path class="ggpbi-point" d="M4,0A4,4,0,1,1,-4,0A4,4,0,1,1,4,0" transform="translate(47.48134244516243,157.1170212765957)" fill="#4682B4" opacity="0.8" role="listitem" tabindex="0" aria-label="2.78: 21.4" style="pointer-events: all; cursor: pointer;"></path></g></g><g class="ggpbi-axis-x" transform="translate(0,297)" fill="none" font-size="10" font-family="sans-serif" text-anchor="middle"><path class="domain" stroke="currentColor" d="M0.5,0.5H140.16666666666666" style="display: none;"></path><g class="tick" opacity="1" transform="translate(22.658825534816334,0)"><line stroke="currentColor" y2="2.75" style="stroke: rgb(92, 92, 92);"></line><text fill="currentColor" y="5.75" dy="0.71em" style="font-size: 8.8px; fill: rgb(112, 112, 112);">2</text></g><g class="tick" opacity="1" transform="translate(55.12359080449083,0)"><line stroke="currentColor" y2="2.75" style="stroke: rgb(92, 92, 92);"></line><text fill="currentColor" y="5.75" dy="0.71em" style="font-size: 8.8px; fill: rgb(112, 112, 112);">3</text></g><g class="tick" opacity="1" transform="translate(87.58835607416533,0)"><line stroke="currentColor" y2="2.75" style="stroke: rgb(92, 92, 92);"></line><text fill="currentColor" y="5.75" dy="0.71em" style="font-size: 8.8px; fill: rgb(112, 112, 112);">4</text></g><g class="tick" opacity="1" transform="translate(120.05312134383982,0)"><line stroke="currentColor" y2="2.75" style="stroke: rgb(92, 92, 92);"></line><text fill="currentColor" y="5.75" dy="0.71em" style="font-size: 8.8px; fill: rgb(112, 112, 112);">5</text></g></g><g class="ggpbi-axis-y" fill="none" font-size="10" font-family="sans-serif" text-anchor="end"><path class="domain" stroke="currentColor" d="M0.5,297.5V0.5" style="display: none;"></path><g class="tick" opacity="1" transform="translate(0,288.59574468085106)"><line stroke="currentColor" x2="-2.75" style="stroke: rgb(92, 92, 92);"></line><text fill="currentColor" x="-5.75" dy="0.32em" style="font-size: 8.8px; fill: rgb(112, 112, 112);">10</text></g><g class="tick" opacity="1" transform="translate(0,231.14893617021275)"><line stroke="currentColor" x2="-2.75" style="stroke: rgb(92, 92, 92);"></line><text fill="currentColor" x="-5.75" dy="0.32em" style="font-size: 8.8px; fill: rgb(112, 112, 112);">15</text></g><g class="tick" opacity="1" transform="translate(0,173.70212765957447)"><line stroke="currentColor" x2="-2.75" style="stroke: rgb(92, 92, 92);"></line><text fill="currentColor" x="-5.75" dy="0.32em" style="font-size: 8.8px; fill: rgb(112, 112, 112);">20</text></g><g class="tick" opacity="1" transform="translate(0,116.25531914893614)"><line stroke="currentColor" x2="-2.75" style="stroke: rgb(92, 92, 92);"></line><text fill="currentColor" x="-5.75" dy="0.32em" style="font-size: 8.8px; fill: rgb(112, 112, 112);">25</text></g><g class="tick" opacity="1" transform="translate(0,58.80851063829784)"><line stroke="currentColor" x2="-2.75" style="stroke: rgb(92, 92, 92);"></line><text fill="currentColor" x="-5.75" dy="0.32em" style="font-size: 8.8px; fill: rgb(112, 112, 112);">30</text></g><g class="tick" opacity="1" transform="translate(0,1.3617021276595112)"><line stroke="currentColor" x2="-2.75" style="stroke: rgb(92, 92, 92);"></line><text fill="currentColor" x="-5.75" dy="0.32em" style="font-size: 8.8px; fill: rgb(112, 112, 112);">35</text></g></g></g></g><g class="ggpbi-facet" transform="translate(195.66666666666666,0)"><text class="ggpbi-facet-strip-col" x="97.83333333333333" y="14" text-anchor="middle" style="font-size: 8.8px; fill: rgb(112, 112, 112);">6</text><g transform="translate(44,22)"><rect class="ggpbi-panel" width="139.66666666666666" height="297" fill="#EBEBEB"></rect><line class="ggpbi-grid-minor" x1="0" x2="139.66666666666666" y1="259.3723404255319" y2="259.3723404255319" stroke="#ffffff" stroke-width="0.25"></line><line class="ggpbi-grid-minor" x1="0" x2="139.66666666666666" y1="201.92553191489358" y2="201.92553191489358" stroke="#ffffff" stroke-width="0.25"></line><line class="ggpbi-grid-minor" x1="0" x2="139.66666666666666" y1="144.4787234042553" y2="144.4787234042553" stroke="#ffffff" stroke-width="0.25"></line><line class="ggpbi-grid-minor" x1="0" x2="139.66666666666666" y1="87.031914893617" y2="87.031914893617" stroke="#ffffff" stroke-width="0.25"></line><line class="ggpbi-grid-minor" x1="0" x2="139.66666666666666" y1="29.585106382978676" y2="29.585106382978676" stroke="#ffffff" stroke-width="0.25"></line><line class="ggpbi-grid-minor" y1="0" y2="297" x1="38.39120816965359" x2="38.39120816965359" stroke="#ffffff" stroke-width="0.25"></line><line class="ggpbi-grid-minor" y1="0" y2="297" x1="70.85597343932807" x2="70.85597343932807" stroke="#ffffff" stroke-width="0.25"></line><line class="ggpbi-grid-minor" y1="0" y2="297" x1="103.32073870900257" x2="103.32073870900257" stroke="#ffffff" stroke-width="0.25"></line><line class="ggpbi-grid" x1="0" x2="139.66666666666666" y1="288.09574468085106" y2="288.09574468085106" stroke="#ffffff" stroke-width="0.5"></line><line class="ggpbi-grid" x1="0" x2="139.66666666666666" y1="230.64893617021275" y2="230.64893617021275" stroke="#ffffff" stroke-width="0.5"></line><line class="ggpbi-grid" x1="0" x2="139.66666666666666" y1="173.20212765957447" y2="173.20212765957447" stroke="#ffffff" stroke-width="0.5"></line><line class="ggpbi-grid" x1="0" x2="139.66666666666666" y1="115.75531914893614" y2="115.75531914893614" stroke="#ffffff" stroke-width="0.5"></line><line class="ggpbi-grid" x1="0" x2="139.66666666666666" y1="58.30851063829784" y2="58.30851063829784" stroke="#ffffff" stroke-width="0.5"></line><line class="ggpbi-grid" x1="0" x2="139.66666666666666" y1="0.8617021276595113" y2="0.8617021276595113" stroke="#ffffff" stroke-width="0.5"></line><line class="ggpbi-grid" y1="0" y2="297" x1="22.158825534816334" x2="22.158825534816334" stroke="#ffffff" stroke-width="0.5"></line><line class="ggpbi-grid" y1="0" y2="297" x1="54.62359080449083" x2="54.62359080449083" stroke="#ffffff" stroke-width="0.5"></line><line class="ggpbi-grid" y1="0" y2="297" x1="87.08835607416533" x2="87.08835607416533" stroke="#ffffff" stroke-width="0.5"></line><line class="ggpbi-grid" y1="0" y2="297" x1="119.55312134383982" x2="119.55312134383982" stroke="#ffffff" stroke-width="0.5"></line><g class="ggpbi-geom-clip" clip-path="url(#ggpbi-clip-facet-0-1-20)"><g class="ggpbi-layer-point" role="list" aria-label="Data points"><path class="ggpbi-point" d="M4,0A4,4,0,1,1,-4,0A4,4,0,1,1,4,0" transform="translate(42.28698000201452,161.71276595744678)" fill="#4682B4" opacity="0.8" role="listitem" tabindex="0" aria-label="2.62: 21" style="pointer-events: all; cursor: pointer;"></path><path class="ggpbi-point" d="M4,0A4,4,0,1,1,-4,0A4,4,0,1,1,4,0" transform="translate(50.56549514578152,161.71276595744678)" fill="#4682B4" opacity="0.8" role="listitem" tabindex="0" aria-label="2.875: 21" style="pointer-events: all; cursor: pointer;"></path><path class="ggpbi-point" d="M4,0A4,4,0,1,1,-4,0A4,4,0,1,1,4,0" transform="translate(61.60351533747084,157.1170212765957)" fill="#4682B4" opacity="0.8" role="listitem" tabindex="0" aria-label="3.215: 21.4" style="pointer-events: all; cursor: pointer;"></path><path class="ggpbi-point" d="M4,0A4,4,0,1,1,-4,0A4,4,0,1,1,4,0" transform="translate(69.5573828285411,195.03191489361697)" fill="#4682B4" opacity="0.8" role="listitem" tabindex="0" aria-label="3.46: 18.1" style="pointer-events: all; cursor: pointer;"></path><path class="ggpbi-point" d="M4,0A4,4,0,1,1,-4,0A4,4,0,1,1,4,0" transform="translate(68.90808752314761,182.39361702127658)" fill="#4682B4" opacity="0.8" role="listitem" tabindex="0" aria-label="3.44: 19.2" style="pointer-events: all; cursor: pointer;"></path><path class="ggpbi-point" d="M4,0A4,4,0,1,1,-4,0A4,4,0,1,1,4,0" transform="translate(68.90808752314761,198.47872340425528)" fill="#4682B4" opacity="0.8" role="listitem" tabindex="0" aria-label="3.44: 17.8" style="pointer-events: all; cursor: pointer;"></path><path class="ggpbi-point" d="M4,0A4,4,0,1,1,-4,0A4,4,0,1,1,4,0" transform="translate(47.15669479246569,176.64893617021278)" fill="#4682B4" opacity="0.8" role="listitem" tabindex="0" aria-label="2.77: 19.7" style="pointer-events: all; cursor: pointer;"></path></g></g><g class="ggpbi-axis-x" transform="translate(0,297)" fill="none" font-size="10" font-family="sans-serif" text-anchor="middle"><path class="domain" stroke="currentColor" d="M0.5,0.5H140.16666666666666" style="display: none;"></path><g class="tick" opacity="1" transform="translate(22.658825534816334,0)"><line stroke="currentColor" y2="2.75" style="stroke: rgb(92, 92, 92);"></line><text fill="currentColor" y="5.75" dy="0.71em" style="font-size: 8.8px; fill: rgb(112, 112, 112);">2</text></g><g class="tick" opacity="1" transform="translate(55.12359080449083,0)"><line stroke="currentColor" y2="2.75" style="stroke: rgb(92, 92, 92);"></line><text fill="currentColor" y="5.75" dy="0.71em" style="font-size: 8.8px; fill: rgb(112, 112, 112);">3</text></g><g class="tick" opacity="1" transform="translate(87.58835607416533,0)"><line stroke="currentColor" y2="2.75" style="stroke: rgb(92, 92, 92);"></line><text fill="currentColor" y="5.75" dy="0.71em" style="font-size: 8.8px; fill: rgb(112, 112, 112);">4</text></g><g class="tick" opacity="1" transform="translate(120.05312134383982,0)"><line stroke="currentColor" y2="2.75" style="stroke: rgb(92, 92, 92);"></line><text fill="currentColor" y="5.75" dy="0.71em" style="font-size: 8.8px; fill: rgb(112, 112, 112);">5</text></g></g><g class="ggpbi-axis-y" fill="none" font-size="10" font-family="sans-serif" text-anchor="end"><path class="domain" stroke="currentColor" d="M0.5,297.5V0.5" style="display: none;"></path><g class="tick" opacity="1" transform="translate(0,288.59574468085106)"><line stroke="currentColor" x2="-2.75" style="stroke: rgb(92, 92, 92);"></line><text fill="currentColor" x="-5.75" dy="0.32em" style="font-size: 8.8px; fill: rgb(112, 112, 112);">10</text></g><g class="tick" opacity="1" transform="translate(0,231.14893617021275)"><line stroke="currentColor" x2="-2.75" style="stroke: rgb(92, 92, 92);"></line><text fill="currentColor" x="-5.75" dy="0.32em" style="font-size: 8.8px; fill: rgb(112, 112, 112);">15</text></g><g class="tick" opacity="1" transform="translate(0,173.70212765957447)"><line stroke="currentColor" x2="-2.75" style="stroke: rgb(92, 92, 92);"></line><text fill="currentColor" x="-5.75" dy="0.32em" style="font-size: 8.8px; fill: rgb(112, 112, 112);">20</text></g><g class="tick" opacity="1" transform="translate(0,116.25531914893614)"><line stroke="currentColor" x2="-2.75" style="stroke: rgb(92, 92, 92);"></line><text fill="currentColor" x="-5.75" dy="0.32em" style="font-size: 8.8px; fill: rgb(112, 112, 112);">25</text></g><g class="tick" opacity="1" transform="translate(0,58.80851063829784)"><line stroke="currentColor" x2="-2.75" style="stroke: rgb(92, 92, 92);"></line><text fill="currentColor" x="-5.75" dy="0.32em" style="font-size: 8.8px; fill: rgb(112, 112, 112);">30</text></g><g class="tick" opacity="1" transform="translate(0,1.3617021276595112)"><line stroke="currentColor" x2="-2.75" style="stroke: rgb(92, 92, 92);"></line><text fill="currentColor" x="-5.75" dy="0.32em" style="font-size: 8.8px; fill: rgb(112, 112, 112);">35</text></g></g></g></g><g class="ggpbi-facet" transform="translate(391.3333333333333,0)"><text class="ggpbi-facet-strip-col" x="97.83333333333333" y="14" text-anchor="middle" style="font-size: 8.8px; fill: rgb(112, 112, 112);">8</text><g transform="translate(44,22)"><rect class="ggpbi-panel" width="139.66666666666666" height="297" fill="#EBEBEB"></rect><line class="ggpbi-grid-minor" x1="0" x2="139.66666666666666" y1="259.3723404255319" y2="259.3723404255319" stroke="#ffffff" stroke-width="0.25"></line><line class="ggpbi-grid-minor" x1="0" x2="139.66666666666666" y1="201.92553191489358" y2="201.92553191489358" stroke="#ffffff" stroke-width="0.25"></line><line class="ggpbi-grid-minor" x1="0" x2="139.66666666666666" y1="144.4787234042553" y2="144.4787234042553" stroke="#ffffff" stroke-width="0.25"></line><line class="ggpbi-grid-minor" x1="0" x2="139.66666666666666" y1="87.031914893617" y2="87.031914893617" stroke="#ffffff" stroke-width="0.25"></line><line class="ggpbi-grid-minor" x1="0" x2="139.66666666666666" y1="29.585106382978676" y2="29.585106382978676" stroke="#ffffff" stroke-width="0.25"></line><line class="ggpbi-grid-minor" y1="0" y2="297" x1="38.39120816965359" x2="38.39120816965359" stroke="#ffffff" stroke-width="0.25"></line><line class="ggpbi-grid-minor" y1="0" y2="297" x1="70.85597343932807" x2="70.85597343932807" stroke="#ffffff" stroke-width="0.25"></line><line class="ggpbi-grid-minor" y1="0" y2="297" x1="103.32073870900257" x2="103.32073870900257" stroke="#ffffff" stroke-width="0.25"></line><line class="ggpbi-grid" x1="0" x2="139.66666666666666" y1="288.09574468085106" y2="288.09574468085106" stroke="#ffffff" stroke-width="0.5"></line><line class="ggpbi-grid" x1="0" x2="139.66666666666666" y1="230.64893617021275" y2="230.64893617021275" stroke="#ffffff" stroke-width="0.5"></line><line class="ggpbi-grid" x1="0" x2="139.66666666666666" y1="173.20212765957447" y2="173.20212765957447" stroke="#ffffff" stroke-width="0.5"></line><line class="ggpbi-grid" x1="0" x2="139.66666666666666" y1="115.75531914893614" y2="115.75531914893614" stroke="#ffffff" stroke-width="0.5"></line><line class="ggpbi-grid" x1="0" x2="139.66666666666666" y1="58.30851063829784" y2="58.30851063829784" stroke="#ffffff" stroke-width="0.5"></line><line class="ggpbi-grid" x1="0" x2="139.66666666666666" y1="0.8617021276595113" y2="0.8617021276595113" stroke="#ffffff" stroke-width="0.5"></line><line class="ggpbi-grid" y1="0" y2="297" x1="22.158825534816334" x2="22.158825534816334" stroke="#ffffff" stroke-width="0.5"></line><line class="ggpbi-grid" y1="0" y2="297" x1="54.62359080449083" x2="54.62359080449083" stroke="#ffffff" stroke-width="0.5"></line><line class="ggpbi-grid" y1="0" y2="297" x1="87.08835607416533" x2="87.08835607416533" stroke="#ffffff" stroke-width="0.5"></line><line class="ggpbi-grid" y1="0" y2="297" x1="119.55312134383982" x2="119.55312134383982" stroke="#ffffff" stroke-width="0.5"></line><g class="ggpbi-geom-clip" clip-path="url(#ggpbi-clip-facet-0-2-21)"><g class="ggpbi-layer-point" role="list" aria-label="Data points"><path class="ggpbi-point" d="M4,0A4,4,0,1,1,-4,0A4,4,0,1,1,4,0" transform="translate(68.90808752314761,188.13829787234042)" fill="#4682B4" opacity="0.8" role="listitem" tabindex="0" aria-label="3.44: 18.7" style="pointer-events: all; cursor: pointer;"></path><path class="ggpbi-point" d="M4,0A4,4,0,1,1,-4,0A4,4,0,1,1,4,0" transform="translate(73.1285070082053,238.69148936170208)" fill="#4682B4" opacity="0.8" role="listitem" tabindex="0" aria-label="3.57: 14.3" style="pointer-events: all; cursor: pointer;"></path><path class="ggpbi-point" d="M4,0A4,4,0,1,1,-4,0A4,4,0,1,1,4,0" transform="translate(89.36088964304254,214.56382978723403)" fill="#4682B4" opacity="0.8" role="listitem" tabindex="0" aria-label="4.07: 16.4" style="pointer-events: all; cursor: pointer;"></path><path class="ggpbi-point" d="M4,0A4,4,0,1,1,-4,0A4,4,0,1,1,4,0" transform="translate(78.32286945135321,204.2234042553191)" fill="#4682B4" opacity="0.8" role="listitem" tabindex="0" aria-label="3.73: 17.3" style="pointer-events: all; cursor: pointer;"></path><path class="ggpbi-point" d="M4,0A4,4,0,1,1,-4,0A4,4,0,1,1,4,0" transform="translate(79.94610771483694,228.35106382978722)" fill="#4682B4" opacity="0.8" role="listitem" tabindex="0" aria-label="3.78: 15.2" style="pointer-events: all; cursor: pointer;"></path><path class="ggpbi-point" d="M4,0A4,4,0,1,1,-4,0A4,4,0,1,1,4,0" transform="translate(127.66931266125845,283.5)" fill="#4682B4" opacity="0.8" role="listitem" tabindex="0" aria-label="5.25: 10.4" style="pointer-events: all; cursor: pointer;"></path><path class="ggpbi-point" d="M4,0A4,4,0,1,1,-4,0A4,4,0,1,1,4,0" transform="translate(133.3181818181818,283.5)" fill="#4682B4" opacity="0.8" role="listitem" tabindex="0" aria-label="5.424: 10.4" style="pointer-events: all; cursor: pointer;"></path><path class="ggpbi-point" d="M4,0A4,4,0,1,1,-4,0A4,4,0,1,1,4,0" transform="translate(130.75346536187752,234.09574468085106)" fill="#4682B4" opacity="0.8" role="listitem" tabindex="0" aria-label="5.345: 14.7" style="pointer-events: all; cursor: pointer;"></path><path class="ggpbi-point" d="M4,0A4,4,0,1,1,-4,0A4,4,0,1,1,4,0" transform="translate(71.50526874472158,224.90425531914892)" fill="#4682B4" opacity="0.8" role="listitem" tabindex="0" aria-label="3.52: 15.5" style="pointer-events: all; cursor: pointer;"></path><path class="ggpbi-point" d="M4,0A4,4,0,1,1,-4,0A4,4,0,1,1,4,0" transform="translate(68.74576369679924,228.35106382978722)" fill="#4682B4" opacity="0.8" role="listitem" tabindex="0" aria-label="3.435: 15.2" style="pointer-events: all; cursor: pointer;"></path><path class="ggpbi-point" d="M4,0A4,4,0,1,1,-4,0A4,4,0,1,1,4,0" transform="translate(81.8939936310174,250.18085106382978)" fill="#4682B4" opacity="0.8" role="listitem" tabindex="0" aria-label="3.84: 13.3" style="pointer-events: all; cursor: pointer;"></path><path class="ggpbi-point" d="M4,0A4,4,0,1,1,-4,0A4,4,0,1,1,4,0" transform="translate(82.0563174573658,182.39361702127658)" fill="#4682B4" opacity="0.8" role="listitem" tabindex="0" aria-label="3.845: 19.2" style="pointer-events: all; cursor: pointer;"></path><path class="ggpbi-point" d="M4,0A4,4,0,1,1,-4,0A4,4,0,1,1,4,0" transform="translate(60.142600900335495,221.45744680851058)" fill="#4682B4" opacity="0.8" role="listitem" tabindex="0" aria-label="3.17: 15.8" style="pointer-events: all; cursor: pointer;"></path><path class="ggpbi-point" d="M4,0A4,4,0,1,1,-4,0A4,4,0,1,1,4,0" transform="translate(73.1285070082053,230.64893617021275)" fill="#4682B4" opacity="0.8" role="listitem" tabindex="0" aria-label="3.57: 15" style="pointer-events: all; cursor: pointer;"></path></g></g><g class="ggpbi-axis-x" transform="translate(0,297)" fill="none" font-size="10" font-family="sans-serif" text-anchor="middle"><path class="domain" stroke="currentColor" d="M0.5,0.5H140.16666666666666" style="display: none;"></path><g class="tick" opacity="1" transform="translate(22.658825534816334,0)"><line stroke="currentColor" y2="2.75" style="stroke: rgb(92, 92, 92);"></line><text fill="currentColor" y="5.75" dy="0.71em" style="font-size: 8.8px; fill: rgb(112, 112, 112);">2</text></g><g class="tick" opacity="1" transform="translate(55.12359080449083,0)"><line stroke="currentColor" y2="2.75" style="stroke: rgb(92, 92, 92);"></line><text fill="currentColor" y="5.75" dy="0.71em" style="font-size: 8.8px; fill: rgb(112, 112, 112);">3</text></g><g class="tick" opacity="1" transform="translate(87.58835607416533,0)"><line stroke="currentColor" y2="2.75" style="stroke: rgb(92, 92, 92);"></line><text fill="currentColor" y="5.75" dy="0.71em" style="font-size: 8.8px; fill: rgb(112, 112, 112);">4</text></g><g class="tick" opacity="1" transform="translate(120.05312134383982,0)"><line stroke="currentColor" y2="2.75" style="stroke: rgb(92, 92, 92);"></line><text fill="currentColor" y="5.75" dy="0.71em" style="font-size: 8.8px; fill: rgb(112, 112, 112);">5</text></g></g><g class="ggpbi-axis-y" fill="none" font-size="10" font-family="sans-serif" text-anchor="end"><path class="domain" stroke="currentColor" d="M0.5,297.5V0.5" style="display: none;"></path><g class="tick" opacity="1" transform="translate(0,288.59574468085106)"><line stroke="currentColor" x2="-2.75" style="stroke: rgb(92, 92, 92);"></line><text fill="currentColor" x="-5.75" dy="0.32em" style="font-size: 8.8px; fill: rgb(112, 112, 112);">10</text></g><g class="tick" opacity="1" transform="translate(0,231.14893617021275)"><line stroke="currentColor" x2="-2.75" style="stroke: rgb(92, 92, 92);"></line><text fill="currentColor" x="-5.75" dy="0.32em" style="font-size: 8.8px; fill: rgb(112, 112, 112);">15</text></g><g class="tick" opacity="1" transform="translate(0,173.70212765957447)"><line stroke="currentColor" x2="-2.75" style="stroke: rgb(92, 92, 92);"></line><text fill="currentColor" x="-5.75" dy="0.32em" style="font-size: 8.8px; fill: rgb(112, 112, 112);">20</text></g><g class="tick" opacity="1" transform="translate(0,116.25531914893614)"><line stroke="currentColor" x2="-2.75" style="stroke: rgb(92, 92, 92);"></line><text fill="currentColor" x="-5.75" dy="0.32em" style="font-size: 8.8px; fill: rgb(112, 112, 112);">25</text></g><g class="tick" opacity="1" transform="translate(0,58.80851063829784)"><line stroke="currentColor" x2="-2.75" style="stroke: rgb(92, 92, 92);"></line><text fill="currentColor" x="-5.75" dy="0.32em" style="font-size: 8.8px; fill: rgb(112, 112, 112);">30</text></g><g class="tick" opacity="1" transform="translate(0,1.3617021276595112)"><line stroke="currentColor" x2="-2.75" style="stroke: rgb(92, 92, 92);"></line><text fill="currentColor" x="-5.75" dy="0.32em" style="font-size: 8.8px; fill: rgb(112, 112, 112);">35</text></g></g></g></g></g></svg>
