<svg width="640" height="400" class="ggpbi-visual" role="img" aria-label="Chart" style="pointer-events: none; outline: none;" tabindex="0" xmlns="http://www.w3.org/2000/svg"><defs><clipPath id="ggpbi-clip-panel-17"><rect x="0" y="0" width="587" height="353"></rect></clipPath></defs><g transform="translate(42,11)"><rect class="ggpbi-panel" width="587" height="353" fill="#EBEBEB"></rect><line class="ggpbi-grid-minor" x1="0" x2="587" y1="220.2603305785124" y2="220.2603305785124" stroke="#ffffff" stroke-width="0.25"></line><line class="ggpbi-grid-minor" x1="0" x2="587" y1="112.21013161922255" y2="112.21013161922255" stroke="#ffffff" stroke-width="0.25"></line><line class="ggpbi-grid" x1="0" x2="587" y1="274.2854300581573" y2="274.2854300581573" stroke="#ffffff" stroke-width="0.5"></line><line class="ggpbi-grid" x1="0" x2="587" y1="166.23523109886747" y2="166.23523109886747" stroke="#ffffff" stroke-width="0.5"></line><line class="ggpbi-grid" x1="0" x2="587" y1="58.18503213957763" y2="58.18503213957763" stroke="#ffffff" stroke-width="0.5"></line><g class="ggpbi-geom-clip" clip-path="url(#ggpbi-clip-panel-17)"><g class="ggpbi-layer-point" role="list" aria-label="Data points"><path class="ggpbi-point" d="M4,0A4,4,0,1,1,-4,0A4,4,0,1,1,4,0" transform="translate(147.09588042098122,336.9545454545455)" fill="#4682B4" opacity="0.7" role="listitem" tabindex="0" aria-label="0.5: 4.2" style="pointer-events: all; cursor: pointer;"></path><path class="ggpbi-point" d="M4,0A4,4,0,1,1,-4,0A4,4,0,1,1,4,0" transform="translate(140.88578735782576,258.0779002142639)" fill="#4682B4" opacity="0.7" role="listitem" tabindex="0" aria-label="0.5: 11.5" style="pointer-events: all; cursor: pointer;"></path><path class="ggpbi-point" d="M4,0A4,4,0,1,1,-4,0A4,4,0,1,1,4,0" transform="translate(157.31084707956285,303.4589837771656)" fill="#4682B4" opacity="0.7" role="listitem" tabindex="0" aria-label="0.5: 7.3" style="pointer-events: all; cursor: pointer;"></path><path class="ggpbi-point" d="M4,0A4,4,0,1,1,-4,0A4,4,0,1,1,4,0" transform="translate(149.88490980198094,319.6665136210591)" fill="#4682B4" opacity="0.7" role="listitem" tabindex="0" aria-label="0.5: 5.8" style="pointer-events: all; cursor: pointer;"></path><path class="ggpbi-point" d="M4,0A4,4,0,1,1,-4,0A4,4,0,1,1,4,0" transform="translate(129.77211661852348,313.1835016835017)" fill="#4682B4" opacity="0.7" role="listitem" tabindex="0" aria-label="0.5: 6.4" style="pointer-events: all; cursor: pointer;"></path><path class="ggpbi-point" d="M4,0A4,4,0,1,1,-4,0A4,4,0,1,1,4,0" transform="translate(144.0678594899549,274.2854300581573)" fill="#4682B4" opacity="0.7" role="listitem" tabindex="0" aria-label="0.5: 10" style="pointer-events: all; cursor: pointer;"></path><path class="ggpbi-point" d="M4,0A4,4,0,1,1,-4,0A4,4,0,1,1,4,0" transform="translate(133.77151405676867,261.3194061830426)" fill="#4682B4" opacity="0.7" role="listitem" tabindex="0" aria-label="0.5: 11.2" style="pointer-events: all; cursor: pointer;"></path><path class="ggpbi-point" d="M4,0A4,4,0,1,1,-4,0A4,4,0,1,1,4,0" transform="translate(148.05661030822995,261.3194061830426)" fill="#4682B4" opacity="0.7" role="listitem" tabindex="0" aria-label="0.5: 11.2" style="pointer-events: all; cursor: pointer;"></path><path class="ggpbi-point" d="M4,0A4,4,0,1,1,-4,0A4,4,0,1,1,4,0" transform="translate(157.83950692572728,326.14952555861646)" fill="#4682B4" opacity="0.7" role="listitem" tabindex="0" aria-label="0.5: 5.2" style="pointer-events: all; cursor: pointer;"></path><path class="ggpbi-point" d="M4,0A4,4,0,1,1,-4,0A4,4,0,1,1,4,0" transform="translate(141.86218719561288,306.7004897459443)" fill="#4682B4" opacity="0.7" role="listitem" tabindex="0" aria-label="0.5: 7" style="pointer-events: all; cursor: pointer;"></path><path class="ggpbi-point" d="M4,0A4,4,0,1,1,-4,0A4,4,0,1,1,4,0" transform="translate(283.3372852917098,204.0528007346189)" fill="#4682B4" opacity="0.7" role="listitem" tabindex="0" aria-label="1: 16.5" style="pointer-events: all; cursor: pointer;"></path><path class="ggpbi-point" d="M4,0A4,4,0,1,1,-4,0A4,4,0,1,1,4,0" transform="translate(309.0262832103315,204.0528007346189)" fill="#4682B4" opacity="0.7" role="listitem" tabindex="0" aria-label="1: 16.5" style="pointer-events: all; cursor: pointer;"></path><path class="ggpbi-point" d="M4,0A4,4,0,1,1,-4,0A4,4,0,1,1,4,0" transform="translate(303.4863965831106,218.09932659932662)" fill="#4682B4" opacity="0.7" role="listitem" tabindex="0" aria-label="1: 15.2" style="pointer-events: all; cursor: pointer;"></path><path class="ggpbi-point" d="M4,0A4,4,0,1,1,-4,0A4,4,0,1,1,4,0" transform="translate(285.6568384265026,195.40878481787573)" fill="#4682B4" opacity="0.7" role="listitem" tabindex="0" aria-label="1: 17.3" style="pointer-events: all; cursor: pointer;"></path><path class="ggpbi-point" d="M4,0A4,4,0,1,1,-4,0A4,4,0,1,1,4,0" transform="translate(281.19686173755997,139.222681359045)" fill="#4682B4" opacity="0.7" role="listitem" tabindex="0" aria-label="1: 22.5" style="pointer-events: all; cursor: pointer;"></path><path class="ggpbi-point" d="M4,0A4,4,0,1,1,-4,0A4,4,0,1,1,4,0" transform="translate(293.52964525959595,195.40878481787573)" fill="#4682B4" opacity="0.7" role="listitem" tabindex="0" aria-label="1: 17.3" style="pointer-events: all; cursor: pointer;"></path><path class="ggpbi-point" d="M4,0A4,4,0,1,1,-4,0A4,4,0,1,1,4,0" transform="translate(301.08362531279073,235.387358432813)" fill="#4682B4" opacity="0.7" role="listitem" tabindex="0" aria-label="1: 13.6" style="pointer-events: all; cursor: pointer;"></path><path class="ggpbi-point" d="M4,0A4,4,0,1,1,-4,0A4,4,0,1,1,4,0" transform="translate(297.9954631260936,225.6628405264769)" fill="#4682B4" opacity="0.7" role="listitem" tabindex="0" aria-label="1: 14.5" style="pointer-events: all; cursor: pointer;"></path><path class="ggpbi-point" d="M4,0A4,4,0,1,1,-4,0A4,4,0,1,1,4,0" transform="translate(273.33694088630057,179.20125497398226)" fill="#4682B4" opacity="0.7" role="listitem" tabindex="0" aria-label="1: 18.8" style="pointer-events: all; cursor: pointer;"></path><path class="ggpbi-point" d="M4,0A4,4,0,1,1,-4,0A4,4,0,1,1,4,0" transform="translate(292.31262233157355,214.8578206305479)" fill="#4682B4" opacity="0.7" role="listitem" tabindex="0" aria-label="1: 15.5" style="pointer-events: all; cursor: pointer;"></path><path class="ggpbi-point" d="M4,0A4,4,0,1,1,-4,0A4,4,0,1,1,4,0" transform="translate(457.7216945211451,127.33715947352309)" fill="#4682B4" opacity="0.7" role="listitem" tabindex="0" aria-label="2: 23.6" style="pointer-events: all; cursor: pointer;"></path><path class="ggpbi-point" d="M4,0A4,4,0,1,1,-4,0A4,4,0,1,1,4,0" transform="translate(425.7746555424343,182.44276094276094)" fill="#4682B4" opacity="0.7" role="listitem" tabindex="0" aria-label="2: 18.5" style="pointer-events: all; cursor: pointer;"></path><path class="ggpbi-point" d="M4,0A4,4,0,1,1,-4,0A4,4,0,1,1,4,0" transform="translate(447.7647254514054,16.04545454545457)" fill="#4682B4" opacity="0.7" role="listitem" tabindex="0" aria-label="2: 33.9" style="pointer-events: all; cursor: pointer;"></path><path class="ggpbi-point" d="M4,0A4,4,0,1,1,-4,0A4,4,0,1,1,4,0" transform="translate(424.975243740333,106.80762167125805)" fill="#4682B4" opacity="0.7" role="listitem" tabindex="0" aria-label="2: 25.5" style="pointer-events: all; cursor: pointer;"></path><path class="ggpbi-point" d="M4,0A4,4,0,1,1,-4,0A4,4,0,1,1,4,0" transform="translate(434.5422703477297,97.08310376492199)" fill="#4682B4" opacity="0.7" role="listitem" tabindex="0" aria-label="2: 26.4" style="pointer-events: all; cursor: pointer;"></path><path class="ggpbi-point" d="M4,0A4,4,0,1,1,-4,0A4,4,0,1,1,4,0" transform="translate(426.2042904837606,31.172482399755143)" fill="#4682B4" opacity="0.7" role="listitem" tabindex="0" aria-label="2: 32.5" style="pointer-events: all; cursor: pointer;"></path><path class="ggpbi-point" d="M4,0A4,4,0,1,1,-4,0A4,4,0,1,1,4,0" transform="translate(431.23970531937607,93.84159779614328)" fill="#4682B4" opacity="0.7" role="listitem" tabindex="0" aria-label="2: 26.7" style="pointer-events: all; cursor: pointer;"></path><path class="ggpbi-point" d="M4,0A4,4,0,1,1,-4,0A4,4,0,1,1,4,0" transform="translate(455.5357462803182,150.027701254974)" fill="#4682B4" opacity="0.7" role="listitem" tabindex="0" aria-label="2: 21.5" style="pointer-events: all; cursor: pointer;"></path><path class="ggpbi-point" d="M4,0A4,4,0,1,1,-4,0A4,4,0,1,1,4,0" transform="translate(445.2456128830406,130.5786654423018)" fill="#4682B4" opacity="0.7" role="listitem" tabindex="0" aria-label="2: 23.3" style="pointer-events: all; cursor: pointer;"></path><path class="ggpbi-point" d="M4,0A4,4,0,1,1,-4,0A4,4,0,1,1,4,0" transform="translate(424.7958514979246,63.58754208754209)" fill="#4682B4" opacity="0.7" role="listitem" tabindex="0" aria-label="2: 29.5" style="pointer-events: all; cursor: pointer;"></path><path class="ggpbi-point" d="M4,0A4,4,0,1,1,-4,0A4,4,0,1,1,4,0" transform="translate(129.69861528410172,218.09932659932662)" fill="#4682B4" opacity="0.7" role="listitem" tabindex="0" aria-label="0.5: 15.2" style="pointer-events: all; cursor: pointer;"></path><path class="ggpbi-point" d="M4,0A4,4,0,1,1,-4,0A4,4,0,1,1,4,0" transform="translate(156.91349768790192,150.027701254974)" fill="#4682B4" opacity="0.7" role="listitem" tabindex="0" aria-label="0.5: 21.5" style="pointer-events: all; cursor: pointer;"></path><path class="ggpbi-point" d="M4,0A4,4,0,1,1,-4,0A4,4,0,1,1,4,0" transform="translate(142.4889485902141,192.16727884909702)" fill="#4682B4" opacity="0.7" role="listitem" tabindex="0" aria-label="0.5: 17.6" style="pointer-events: all; cursor: pointer;"></path><path class="ggpbi-point" d="M4,0A4,4,0,1,1,-4,0A4,4,0,1,1,4,0" transform="translate(155.5453981275748,277.526936026936)" fill="#4682B4" opacity="0.7" role="listitem" tabindex="0" aria-label="0.5: 9.7" style="pointer-events: all; cursor: pointer;"></path><path class="ggpbi-point" d="M4,0A4,4,0,1,1,-4,0A4,4,0,1,1,4,0" transform="translate(135.65038258259855,225.6628405264769)" fill="#4682B4" opacity="0.7" role="listitem" tabindex="0" aria-label="0.5: 14.5" style="pointer-events: all; cursor: pointer;"></path><path class="ggpbi-point" d="M4,0A4,4,0,1,1,-4,0A4,4,0,1,1,4,0" transform="translate(140.95101898147857,274.2854300581573)" fill="#4682B4" opacity="0.7" role="listitem" tabindex="0" aria-label="0.5: 10" style="pointer-events: all; cursor: pointer;"></path><path class="ggpbi-point" d="M4,0A4,4,0,1,1,-4,0A4,4,0,1,1,4,0" transform="translate(124.18942075986297,293.7344658708295)" fill="#4682B4" opacity="0.7" role="listitem" tabindex="0" aria-label="0.5: 8.2" style="pointer-events: all; cursor: pointer;"></path><path class="ggpbi-point" d="M4,0A4,4,0,1,1,-4,0A4,4,0,1,1,4,0" transform="translate(124.75647038295031,280.7684419957147)" fill="#4682B4" opacity="0.7" role="listitem" tabindex="0" aria-label="0.5: 9.4" style="pointer-events: all; cursor: pointer;"></path><path class="ggpbi-point" d="M4,0A4,4,0,1,1,-4,0A4,4,0,1,1,4,0" transform="translate(145.287307440834,204.0528007346189)" fill="#4682B4" opacity="0.7" role="listitem" tabindex="0" aria-label="0.5: 16.5" style="pointer-events: all; cursor: pointer;"></path><path class="ggpbi-point" d="M4,0A4,4,0,1,1,-4,0A4,4,0,1,1,4,0" transform="translate(146.9181180724146,277.526936026936)" fill="#4682B4" opacity="0.7" role="listitem" tabindex="0" aria-label="0.5: 9.7" style="pointer-events: all; cursor: pointer;"></path><path class="ggpbi-point" d="M4,0A4,4,0,1,1,-4,0A4,4,0,1,1,4,0" transform="translate(283.14429077482964,169.47673706764618)" fill="#4682B4" opacity="0.7" role="listitem" tabindex="0" aria-label="1: 19.7" style="pointer-events: all; cursor: pointer;"></path><path class="ggpbi-point" d="M4,0A4,4,0,1,1,-4,0A4,4,0,1,1,4,0" transform="translate(299.4207964580166,130.5786654423018)" fill="#4682B4" opacity="0.7" role="listitem" tabindex="0" aria-label="1: 23.3" style="pointer-events: all; cursor: pointer;"></path><path class="ggpbi-point" d="M4,0A4,4,0,1,1,-4,0A4,4,0,1,1,4,0" transform="translate(281.6949531664266,127.33715947352309)" fill="#4682B4" opacity="0.7" role="listitem" tabindex="0" aria-label="1: 23.6" style="pointer-events: all; cursor: pointer;"></path><path class="ggpbi-point" d="M4,0A4,4,0,1,1,-4,0A4,4,0,1,1,4,0" transform="translate(285.51981045174267,97.08310376492199)" fill="#4682B4" opacity="0.7" role="listitem" tabindex="0" aria-label="1: 26.4" style="pointer-events: all; cursor: pointer;"></path><path class="ggpbi-point" d="M4,0A4,4,0,1,1,-4,0A4,4,0,1,1,4,0" transform="translate(303.1972054779243,166.23523109886747)" fill="#4682B4" opacity="0.7" role="listitem" tabindex="0" aria-label="1: 20" style="pointer-events: all; cursor: pointer;"></path><path class="ggpbi-point" d="M4,0A4,4,0,1,1,-4,0A4,4,0,1,1,4,0" transform="translate(308.0774598963433,110.04912764003676)" fill="#4682B4" opacity="0.7" role="listitem" tabindex="0" aria-label="1: 25.2" style="pointer-events: all; cursor: pointer;"></path><path class="ggpbi-point" d="M4,0A4,4,0,1,1,-4,0A4,4,0,1,1,4,0" transform="translate(293.8249568948576,103.56611570247935)" fill="#4682B4" opacity="0.7" role="listitem" tabindex="0" aria-label="1: 25.8" style="pointer-events: all; cursor: pointer;"></path><path class="ggpbi-point" d="M4,0A4,4,0,1,1,-4,0A4,4,0,1,1,4,0" transform="translate(281.478740674148,153.26920722375272)" fill="#4682B4" opacity="0.7" role="listitem" tabindex="0" aria-label="1: 21.2" style="pointer-events: all; cursor: pointer;"></path><path class="ggpbi-point" d="M4,0A4,4,0,1,1,-4,0A4,4,0,1,1,4,0" transform="translate(284.73050376626736,225.6628405264769)" fill="#4682B4" opacity="0.7" role="listitem" tabindex="0" aria-label="1: 14.5" style="pointer-events: all; cursor: pointer;"></path><path class="ggpbi-point" d="M4,0A4,4,0,1,1,-4,0A4,4,0,1,1,4,0" transform="translate(285.08749860287463,87.35858585858587)" fill="#4682B4" opacity="0.7" role="listitem" tabindex="0" aria-label="1: 27.3" style="pointer-events: all; cursor: pointer;"></path><path class="ggpbi-point" d="M4,0A4,4,0,1,1,-4,0A4,4,0,1,1,4,0" transform="translate(426.7290645821641,106.80762167125805)" fill="#4682B4" opacity="0.7" role="listitem" tabindex="0" aria-label="2: 25.5" style="pointer-events: all; cursor: pointer;"></path><path class="ggpbi-point" d="M4,0A4,4,0,1,1,-4,0A4,4,0,1,1,4,0" transform="translate(450.5092765822535,97.08310376492199)" fill="#4682B4" opacity="0.7" role="listitem" tabindex="0" aria-label="2: 26.4" style="pointer-events: all; cursor: pointer;"></path><path class="ggpbi-point" d="M4,0A4,4,0,1,1,-4,0A4,4,0,1,1,4,0" transform="translate(451.3589918120239,140.30318334863793)" fill="#4682B4" opacity="0.7" role="listitem" tabindex="0" aria-label="2: 22.4" style="pointer-events: all; cursor: pointer;"></path><path class="ggpbi-point" d="M4,0A4,4,0,1,1,-4,0A4,4,0,1,1,4,0" transform="translate(451.8596245123945,117.61264156718701)" fill="#4682B4" opacity="0.7" role="listitem" tabindex="0" aria-label="2: 24.5" style="pointer-events: all; cursor: pointer;"></path><path class="ggpbi-point" d="M4,0A4,4,0,1,1,-4,0A4,4,0,1,1,4,0" transform="translate(461.3995758485025,114.37113559840832)" fill="#4682B4" opacity="0.7" role="listitem" tabindex="0" aria-label="2: 24.8" style="pointer-events: all; cursor: pointer;"></path><path class="ggpbi-point" d="M4,0A4,4,0,1,1,-4,0A4,4,0,1,1,4,0" transform="translate(427.2684749681174,48.46051423324152)" fill="#4682B4" opacity="0.7" role="listitem" tabindex="0" aria-label="2: 30.9" style="pointer-events: all; cursor: pointer;"></path><path class="ggpbi-point" d="M4,0A4,4,0,1,1,-4,0A4,4,0,1,1,4,0" transform="translate(462.0455382723248,97.08310376492199)" fill="#4682B4" opacity="0.7" role="listitem" tabindex="0" aria-label="2: 26.4" style="pointer-events: all; cursor: pointer;"></path><path class="ggpbi-point" d="M4,0A4,4,0,1,1,-4,0A4,4,0,1,1,4,0" transform="translate(441.2143543361053,87.35858585858587)" fill="#4682B4" opacity="0.7" role="listitem" tabindex="0" aria-label="2: 27.3" style="pointer-events: all; cursor: pointer;"></path><path class="ggpbi-point" d="M4,0A4,4,0,1,1,-4,0A4,4,0,1,1,4,0" transform="translate(461.9869906052654,64.66804407713504)" fill="#4682B4" opacity="0.7" role="listitem" tabindex="0" aria-label="2: 29.4" style="pointer-events: all; cursor: pointer;"></path><path class="ggpbi-point" d="M4,0A4,4,0,1,1,-4,0A4,4,0,1,1,4,0" transform="translate(429.27318580548143,133.82017141108048)" fill="#4682B4" opacity="0.7" role="listitem" tabindex="0" aria-label="2: 23" style="pointer-events: all; cursor: pointer;"></path></g></g><g class="ggpbi-axis-x" transform="translate(0,353)" fill="none" font-size="10" font-family="sans-serif" text-anchor="middle"><path class="domain" stroke="currentColor" d="M0.5,0.5H587.5" style="display: none;"></path><g class="tick" opacity="1" transform="translate(142.9871794871795,0)"><line stroke="currentColor" y2="2.75" style="stroke: rgb(92, 92, 92);"></line><text fill="currentColor" y="5.75" dy="0.71em" style="font-size: 8.8px; fill: rgb(112, 112, 112);">0.5</text></g><g class="tick" opacity="1" transform="translate(293.5,0)"><line stroke="currentColor" y2="2.75" style="stroke: rgb(92, 92, 92);"></line><text fill="currentColor" y="5.75" dy="0.71em" style="font-size: 8.8px; fill: rgb(112, 112, 112);">1</text></g><g class="tick" opacity="1" transform="translate(444.0128205128205,0)"><line stroke="currentColor" y2="2.75" style="stroke: rgb(92, 92, 92);"></line><text fill="currentColor" y="5.75" dy="0.71em" style="font-size: 8.8px; fill: rgb(112, 112, 112);">2</text></g></g><g class="ggpbi-axis-y" fill="none" font-size="10" font-family="sans-serif" text-anchor="end"><path class="domain" stroke="currentColor" d="M0.5,353.5V0.5" style="display: none;"></path><g class="tick" opacity="1" transform="translate(0,274.7854300581573)"><line stroke="currentColor" x2="-2.75" style="stroke: rgb(92, 92, 92);"></line><text fill="currentColor" x="-5.75" dy="0.32em" style="font-size: 8.8px; fill: rgb(112, 112, 112);">10</text></g><g class="tick" opacity="1" transform="translate(0,166.73523109886747)"><line stroke="currentColor" x2="-2.75" style="stroke: rgb(92, 92, 92);"></line><text fill="currentColor" x="-5.75" dy="0.32em" style="font-size: 8.8px; fill: rgb(112, 112, 112);">20</text></g><g class="tick" opacity="1" transform="translate(0,58.68503213957763)"><line stroke="currentColor" x2="-2.75" style="stroke: rgb(92, 92, 92);"></line><text fill="currentColor" x="-5.75" dy="0.32em" style="font-size: 8.8px; fill: rgb(112, 112, 112);">30</text></g></g></g></svg>
