<svg width="640" height="480" class="ggpbi-visual" role="img" aria-label="Chart" style="pointer-events: none; outline: none;" tabindex="0" xmlns="http://www.w3.org/2000/svg"><defs><clipPath id="ggpbi-clip-panel-29"><rect x="0" y="0" width="587" height="433"></rect></clipPath></defs><g transform="translate(42,11)"><rect class="ggpbi-panel" width="587" height="433" fill="#EBEBEB"></rect><line class="ggpbi-grid-minor" x1="0" x2="587" y1="378.142166344294" y2="378.142166344294" stroke="#ffffff" stroke-width="0.25"></line><line class="ggpbi-grid-minor" x1="0" x2="587" y1="294.389748549323" y2="294.389748549323" stroke="#ffffff" stroke-width="0.25"></line><line class="ggpbi-grid-minor" x1="0" x2="587" y1="210.637330754352" y2="210.637330754352" stroke="#ffffff" stroke-width="0.25"></line><line class="ggpbi-grid-minor" x1="0" x2="587" y1="126.88491295938101" y2="126.88491295938101" stroke="#ffffff" stroke-width="0.25"></line><line class="ggpbi-grid-minor" x1="0" x2="587" y1="43.13249516440999" y2="43.13249516440999" stroke="#ffffff" stroke-width="0.25"></line><line class="ggpbi-grid-minor" y1="0" y2="433" x1="161.35302526673024" x2="161.35302526673024" stroke="#ffffff" stroke-width="0.25"></line><line class="ggpbi-grid-minor" y1="0" y2="433" x1="297.79801724739076" x2="297.79801724739076" stroke="#ffffff" stroke-width="0.25"></line><line class="ggpbi-grid-minor" y1="0" y2="433" x1="434.2430092280514" x2="434.2430092280514" stroke="#ffffff" stroke-width="0.25"></line><line class="ggpbi-grid" x1="0" x2="587" y1="420.0183752417795" y2="420.0183752417795" stroke="#ffffff" stroke-width="0.5"></line><line class="ggpbi-grid" x1="0" x2="587" y1="336.2659574468085" y2="336.2659574468085" stroke="#ffffff" stroke-width="0.5"></line><line class="ggpbi-grid" x1="0" x2="587" y1="252.5135396518375" y2="252.5135396518375" stroke="#ffffff" stroke-width="0.5"></line><line class="ggpbi-grid" x1="0" x2="587" y1="168.76112185686648" y2="168.76112185686648" stroke="#ffffff" stroke-width="0.5"></line><line class="ggpbi-grid" x1="0" x2="587" y1="85.0087040618955" y2="85.0087040618955" stroke="#ffffff" stroke-width="0.5"></line><line class="ggpbi-grid" x1="0" x2="587" y1="1.2562862669244725" y2="1.2562862669244725" stroke="#ffffff" stroke-width="0.5"></line><line class="ggpbi-grid" y1="0" y2="433" x1="93.13052927639993" x2="93.13052927639993" stroke="#ffffff" stroke-width="0.5"></line><line class="ggpbi-grid" y1="0" y2="433" x1="229.57552125706053" x2="229.57552125706053" stroke="#ffffff" stroke-width="0.5"></line><line class="ggpbi-grid" y1="0" y2="433" x1="366.0205132377211" x2="366.0205132377211" stroke="#ffffff" stroke-width="0.5"></line><line class="ggpbi-grid" y1="0" y2="433" x1="502.46550521838174" x2="502.46550521838174" stroke="#ffffff" stroke-width="0.5"></line><g class="ggpbi-geom-clip" clip-path="url(#ggpbi-clip-panel-29)"><g class="ggpbi-layer-point" role="list" aria-label="Data points"><path class="ggpbi-point" d="M4,0A4,4,0,1,1,-4,0A4,4,0,1,1,4,0" transform="translate(177.7264243044095,235.76305609284327)" fill="#4682B4" opacity="0.8" role="listitem" tabindex="0" aria-label="2.62: 21" style="pointer-events: all; cursor: pointer;"></path><path class="ggpbi-point" d="M4,0A4,4,0,1,1,-4,0A4,4,0,1,1,4,0" transform="translate(212.51989725947794,235.76305609284327)" fill="#4682B4" opacity="0.8" role="listitem" tabindex="0" aria-label="2.875: 21" style="pointer-events: all; cursor: pointer;"></path><path class="ggpbi-point" d="M4,0A4,4,0,1,1,-4,0A4,4,0,1,1,4,0" transform="translate(136.7929267102113,205.61218568665373)" fill="#4682B4" opacity="0.8" role="listitem" tabindex="0" aria-label="2.32: 22.8" style="pointer-events: all; cursor: pointer;"></path><path class="ggpbi-point" d="M4,0A4,4,0,1,1,-4,0A4,4,0,1,1,4,0" transform="translate(258.9111945329025,229.0628626692456)" fill="#4682B4" opacity="0.8" role="listitem" tabindex="0" aria-label="3.215: 21.4" style="pointer-events: all; cursor: pointer;"></path><path class="ggpbi-point" d="M4,0A4,4,0,1,1,-4,0A4,4,0,1,1,4,0" transform="translate(289.61131772855117,274.28916827853)" fill="#4682B4" opacity="0.8" role="listitem" tabindex="0" aria-label="3.44: 18.7" style="pointer-events: all; cursor: pointer;"></path><path class="ggpbi-point" d="M4,0A4,4,0,1,1,-4,0A4,4,0,1,1,4,0" transform="translate(292.34021756816435,284.3394584139264)" fill="#4682B4" opacity="0.8" role="listitem" tabindex="0" aria-label="3.46: 18.1" style="pointer-events: all; cursor: pointer;"></path><path class="ggpbi-point" d="M4,0A4,4,0,1,1,-4,0A4,4,0,1,1,4,0" transform="translate(307.3491666860371,347.99129593810443)" fill="#4682B4" opacity="0.8" role="listitem" tabindex="0" aria-label="3.57: 14.3" style="pointer-events: all; cursor: pointer;"></path><path class="ggpbi-point" d="M4,0A4,4,0,1,1,-4,0A4,4,0,1,1,4,0" transform="translate(255.50006973338603,178.81141199226303)" fill="#4682B4" opacity="0.8" role="listitem" tabindex="0" aria-label="3.19: 24.4" style="pointer-events: all; cursor: pointer;"></path><path class="ggpbi-point" d="M4,0A4,4,0,1,1,-4,0A4,4,0,1,1,4,0" transform="translate(250.04227005415962,205.61218568665373)" fill="#4682B4" opacity="0.8" role="listitem" tabindex="0" aria-label="3.15: 22.8" style="pointer-events: all; cursor: pointer;"></path><path class="ggpbi-point" d="M4,0A4,4,0,1,1,-4,0A4,4,0,1,1,4,0" transform="translate(289.61131772855117,265.91392649903287)" fill="#4682B4" opacity="0.8" role="listitem" tabindex="0" aria-label="3.44: 19.2" style="pointer-events: all; cursor: pointer;"></path><path class="ggpbi-point" d="M4,0A4,4,0,1,1,-4,0A4,4,0,1,1,4,0" transform="translate(289.61131772855117,289.3646034816247)" fill="#4682B4" opacity="0.8" role="listitem" tabindex="0" aria-label="3.44: 17.8" style="pointer-events: all; cursor: pointer;"></path><path class="ggpbi-point" d="M4,0A4,4,0,1,1,-4,0A4,4,0,1,1,4,0" transform="translate(375.5716626763674,312.81528046421664)" fill="#4682B4" opacity="0.8" role="listitem" tabindex="0" aria-label="4.07: 16.4" style="pointer-events: all; cursor: pointer;"></path><path class="ggpbi-point" d="M4,0A4,4,0,1,1,-4,0A4,4,0,1,1,4,0" transform="translate(329.1803654029428,297.7398452611218)" fill="#4682B4" opacity="0.8" role="listitem" tabindex="0" aria-label="3.73: 17.3" style="pointer-events: all; cursor: pointer;"></path><path class="ggpbi-point" d="M4,0A4,4,0,1,1,-4,0A4,4,0,1,1,4,0" transform="translate(336.0026150019758,332.9158607350097)" fill="#4682B4" opacity="0.8" role="listitem" tabindex="0" aria-label="3.78: 15.2" style="pointer-events: all; cursor: pointer;"></path><path class="ggpbi-point" d="M4,0A4,4,0,1,1,-4,0A4,4,0,1,1,4,0" transform="translate(536.5767532135469,413.3181818181818)" fill="#4682B4" opacity="0.8" role="listitem" tabindex="0" aria-label="5.25: 10.4" style="pointer-events: all; cursor: pointer;"></path><path class="ggpbi-point" d="M4,0A4,4,0,1,1,-4,0A4,4,0,1,1,4,0" transform="translate(560.3181818181819,413.3181818181818)" fill="#4682B4" opacity="0.8" role="listitem" tabindex="0" aria-label="5.424: 10.4" style="pointer-events: all; cursor: pointer;"></path><path class="ggpbi-point" d="M4,0A4,4,0,1,1,-4,0A4,4,0,1,1,4,0" transform="translate(549.5390274517096,341.29110251450675)" fill="#4682B4" opacity="0.8" role="listitem" tabindex="0" aria-label="5.345: 14.7" style="pointer-events: all; cursor: pointer;"></path><path class="ggpbi-point" d="M4,0A4,4,0,1,1,-4,0A4,4,0,1,1,4,0" transform="translate(120.41952767253207,44.807543520309444)" fill="#4682B4" opacity="0.8" role="listitem" tabindex="0" aria-label="2.2: 32.4" style="pointer-events: all; cursor: pointer;"></path><path class="ggpbi-point" d="M4,0A4,4,0,1,1,-4,0A4,4,0,1,1,4,0" transform="translate(40.599207363845586,78.30851063829786)" fill="#4682B4" opacity="0.8" role="listitem" tabindex="0" aria-label="1.615: 30.4" style="pointer-events: all; cursor: pointer;"></path><path class="ggpbi-point" d="M4,0A4,4,0,1,1,-4,0A4,4,0,1,1,4,0" transform="translate(70.61710559959091,19.681818181818116)" fill="#4682B4" opacity="0.8" role="listitem" tabindex="0" aria-label="1.835: 33.9" style="pointer-events: all; cursor: pointer;"></path><path class="ggpbi-point" d="M4,0A4,4,0,1,1,-4,0A4,4,0,1,1,4,0" transform="translate(156.57745054740707,227.38781431334618)" fill="#4682B4" opacity="0.8" role="listitem" tabindex="0" aria-label="2.465: 21.5" style="pointer-events: all; cursor: pointer;"></path><path class="ggpbi-point" d="M4,0A4,4,0,1,1,-4,0A4,4,0,1,1,4,0" transform="translate(300.52691708700405,327.8907156673114)" fill="#4682B4" opacity="0.8" role="listitem" tabindex="0" aria-label="3.52: 15.5" style="pointer-events: all; cursor: pointer;"></path><path class="ggpbi-point" d="M4,0A4,4,0,1,1,-4,0A4,4,0,1,1,4,0" transform="translate(288.92909276864793,332.9158607350097)" fill="#4682B4" opacity="0.8" role="listitem" tabindex="0" aria-label="3.435: 15.2" style="pointer-events: all; cursor: pointer;"></path><path class="ggpbi-point" d="M4,0A4,4,0,1,1,-4,0A4,4,0,1,1,4,0" transform="translate(344.18931452081534,364.74177949709866)" fill="#4682B4" opacity="0.8" role="listitem" tabindex="0" aria-label="3.84: 13.3" style="pointer-events: all; cursor: pointer;"></path><path class="ggpbi-point" d="M4,0A4,4,0,1,1,-4,0A4,4,0,1,1,4,0" transform="translate(344.87153948071875,265.91392649903287)" fill="#4682B4" opacity="0.8" role="listitem" tabindex="0" aria-label="3.845: 19.2" style="pointer-events: all; cursor: pointer;"></path><path class="ggpbi-point" d="M4,0A4,4,0,1,1,-4,0A4,4,0,1,1,4,0" transform="translate(84.261604797657,130.2350096711798)" fill="#4682B4" opacity="0.8" role="listitem" tabindex="0" aria-label="1.935: 27.3" style="pointer-events: all; cursor: pointer;"></path><path class="ggpbi-point" d="M4,0A4,4,0,1,1,-4,0A4,4,0,1,1,4,0" transform="translate(112.23282815369242,152.0106382978723)" fill="#4682B4" opacity="0.8" role="listitem" tabindex="0" aria-label="2.14: 26" style="pointer-events: all; cursor: pointer;"></path><path class="ggpbi-point" d="M4,0A4,4,0,1,1,-4,0A4,4,0,1,1,4,0" transform="translate(26.681818181818194,78.30851063829786)" fill="#4682B4" opacity="0.8" role="listitem" tabindex="0" aria-label="1.513: 30.4" style="pointer-events: all; cursor: pointer;"></path><path class="ggpbi-point" d="M4,0A4,4,0,1,1,-4,0A4,4,0,1,1,4,0" transform="translate(252.77116989377282,322.8655705996131)" fill="#4682B4" opacity="0.8" role="listitem" tabindex="0" aria-label="3.17: 15.8" style="pointer-events: all; cursor: pointer;"></path><path class="ggpbi-point" d="M4,0A4,4,0,1,1,-4,0A4,4,0,1,1,4,0" transform="translate(198.19317310150856,257.5386847195358)" fill="#4682B4" opacity="0.8" role="listitem" tabindex="0" aria-label="2.77: 19.7" style="pointer-events: all; cursor: pointer;"></path><path class="ggpbi-point" d="M4,0A4,4,0,1,1,-4,0A4,4,0,1,1,4,0" transform="translate(307.3491666860371,336.2659574468085)" fill="#4682B4" opacity="0.8" role="listitem" tabindex="0" aria-label="3.57: 15" style="pointer-events: all; cursor: pointer;"></path><path class="ggpbi-point" d="M4,0A4,4,0,1,1,-4,0A4,4,0,1,1,4,0" transform="translate(199.55762302131515,229.0628626692456)" fill="#4682B4" opacity="0.8" role="listitem" tabindex="0" aria-label="2.78: 21.4" style="pointer-events: all; cursor: pointer;"></path></g><g class="ggpbi-layer-text" role="list" aria-label="Data points"><line class="ggpbi-text-segment" x1="177.7264243044095" y1="235.76305609284327" x2="177.7264243044095" y2="221.26305609284327" stroke="#999999" stroke-width="0.5" opacity="0.8"></line><line class="ggpbi-text-segment" x1="212.51989725947794" y1="235.76305609284327" x2="232.7702545322052" y2="243.81925609284326" stroke="#999999" stroke-width="0.5" opacity="0.8"></line><line class="ggpbi-text-segment" x1="258.9111945329025" y1="229.0628626692456" x2="269.9111945329025" y2="229.0628626692456" stroke="#999999" stroke-width="0.5" opacity="0.8"></line><line class="ggpbi-text-segment" x1="289.61131772855117" y1="274.28916827853" x2="278.61131772855117" y2="274.28916827853" stroke="#999999" stroke-width="0.5" opacity="0.8"></line><line class="ggpbi-text-segment" x1="292.34021756816435" y1="284.3394584139264" x2="292.34021756816435" y2="298.8394584139264" stroke="#999999" stroke-width="0.5" opacity="0.8"></line><line class="ggpbi-text-segment" x1="307.3491666860371" y1="347.99129593810443" x2="318.3491666860371" y2="347.99129593810443" stroke="#999999" stroke-width="0.5" opacity="0.8"></line><line class="ggpbi-text-segment" x1="289.61131772855117" y1="265.91392649903287" x2="368.61131772855117" y2="265.91392649903287" stroke="#999999" stroke-width="0.5" opacity="0.8"></line><line class="ggpbi-text-segment" x1="289.61131772855117" y1="289.3646034816247" x2="343.61131772855117" y2="289.3646034816247" stroke="#999999" stroke-width="0.5" opacity="0.8"></line><line class="ggpbi-text-segment" x1="375.5716626763674" y1="312.81528046421664" x2="386.5716626763674" y2="312.81528046421664" stroke="#999999" stroke-width="0.5" opacity="0.8"></line><line class="ggpbi-text-segment" x1="329.1803654029428" y1="297.7398452611218" x2="366.4702654029428" y2="322.0593452611218" stroke="#999999" stroke-width="0.5" opacity="0.8"></line><line class="ggpbi-text-segment" x1="336.0026150019758" y1="332.9158607350097" x2="336.0026150019758" y2="370.4158607350097" stroke="#999999" stroke-width="0.5" opacity="0.8"></line><line class="ggpbi-text-segment" x1="560.3181818181819" y1="413.3181818181818" x2="545.1379310344828" y2="419" stroke="#999999" stroke-width="0.5" opacity="0.8"></line><line class="ggpbi-text-segment" x1="549.5390274517096" y1="341.29110251450675" x2="541.0709075634159" y2="334.79110251450675" stroke="#999999" stroke-width="0.5" opacity="0.8"></line><line class="ggpbi-text-segment" x1="156.57745054740707" y1="227.38781431334618" x2="136.3270932746798" y2="235.44401431334617" stroke="#999999" stroke-width="0.5" opacity="0.8"></line><line class="ggpbi-text-segment" x1="300.52691708700405" y1="327.8907156673114" x2="265.26163208700405" y2="343.0179156673114" stroke="#999999" stroke-width="0.5" opacity="0.8"></line><line class="ggpbi-text-segment" x1="288.92909276864793" y1="332.9158607350097" x2="288.92909276864793" y2="390.4158607350097" stroke="#999999" stroke-width="0.5" opacity="0.8"></line><line class="ggpbi-text-segment" x1="344.18931452081534" y1="364.74177949709866" x2="378.18931452081534" y2="364.74177949709866" stroke="#999999" stroke-width="0.5" opacity="0.8"></line><line class="ggpbi-text-segment" x1="344.87153948071875" y1="265.91392649903287" x2="344.87153948071875" y2="208.41392649903287" stroke="#999999" stroke-width="0.5" opacity="0.8"></line><line class="ggpbi-text-segment" x1="26.681818181818194" y1="78.30851063829786" x2="32.958116883116894" y2="84.80851063829786" stroke="#999999" stroke-width="0.5" opacity="0.8"></line><line class="ggpbi-text-segment" x1="252.77116989377282" y1="322.8655705996131" x2="241.77116989377282" y2="322.8655705996131" stroke="#999999" stroke-width="0.5" opacity="0.8"></line><line class="ggpbi-text-segment" x1="198.19317310150856" y1="257.5386847195358" x2="198.19317310150856" y2="295.0386847195358" stroke="#999999" stroke-width="0.5" opacity="0.8"></line><line class="ggpbi-text-segment" x1="307.3491666860371" y1="336.2659574468085" x2="265.0332366860371" y2="360.5854574468085" stroke="#999999" stroke-width="0.5" opacity="0.8"></line><line class="ggpbi-text-segment" x1="199.55762302131515" y1="229.0628626692456" x2="199.55762302131515" y2="146.5628626692456" stroke="#999999" stroke-width="0.5" opacity="0.8"></line><text class="ggpbi-text" x="177.7264243044095" y="213.76305609284327" text-anchor="middle" dy="0.35em" font-size="10" font-family="sans-serif" fill="#333333" role="listitem" tabindex="0" aria-label="Mazda RX4" style="pointer-events: all; cursor: pointer;">Mazda RX4</text><text class="ggpbi-text" x="251.62252725947795" y="251.31925609284326" text-anchor="middle" dy="0.35em" font-size="10" font-family="sans-serif" fill="#333333" role="listitem" tabindex="0" aria-label="Mazda RX4 Wag" style="pointer-events: all; cursor: pointer;">Mazda RX4 Wag</text><text class="ggpbi-text" x="136.7929267102113" y="191.61218568665373" text-anchor="middle" dy="0.35em" font-size="10" font-family="sans-serif" fill="#333333" role="listitem" tabindex="0" aria-label="Datsun 710" style="pointer-events: all; cursor: pointer;">Datsun 710</text><text class="ggpbi-text" x="317.3111945329025" y="229.0628626692456" text-anchor="middle" dy="0.35em" font-size="10" font-family="sans-serif" fill="#333333" role="listitem" tabindex="0" aria-label="Hornet 4 Drive" style="pointer-events: all; cursor: pointer;">Hornet 4 Drive</text><text class="ggpbi-text" x="221.91131772855118" y="274.28916827853" text-anchor="middle" dy="0.35em" font-size="10" font-family="sans-serif" fill="#333333" role="listitem" tabindex="0" aria-label="Hornet Sportabout" style="pointer-events: all; cursor: pointer;">Hornet Sportabout</text><text class="ggpbi-text" x="292.34021756816435" y="306.3394584139264" text-anchor="middle" dy="0.35em" font-size="10" font-family="sans-serif" fill="#333333" role="listitem" tabindex="0" aria-label="Valiant" style="pointer-events: all; cursor: pointer;">Valiant</text><text class="ggpbi-text" x="353.3491666860371" y="347.99129593810443" text-anchor="middle" dy="0.35em" font-size="10" font-family="sans-serif" fill="#333333" role="listitem" tabindex="0" aria-label="Duster 360" style="pointer-events: all; cursor: pointer;">Duster 360</text><text class="ggpbi-text" x="255.50006973338603" y="164.81141199226303" text-anchor="middle" dy="0.35em" font-size="10" font-family="sans-serif" fill="#333333" role="listitem" tabindex="0" aria-label="Merc 240D" style="pointer-events: all; cursor: pointer;">Merc 240D</text><text class="ggpbi-text" x="250.04227005415962" y="191.61218568665373" text-anchor="middle" dy="0.35em" font-size="10" font-family="sans-serif" fill="#333333" role="listitem" tabindex="0" aria-label="Merc 230" style="pointer-events: all; cursor: pointer;">Merc 230</text><text class="ggpbi-text" x="397.4113177285512" y="265.91392649903287" text-anchor="middle" dy="0.35em" font-size="10" font-family="sans-serif" fill="#333333" role="listitem" tabindex="0" aria-label="Merc 280" style="pointer-events: all; cursor: pointer;">Merc 280</text><text class="ggpbi-text" x="375.51131772855115" y="289.3646034816247" text-anchor="middle" dy="0.35em" font-size="10" font-family="sans-serif" fill="#333333" role="listitem" tabindex="0" aria-label="Merc 280C" style="pointer-events: all; cursor: pointer;">Merc 280C</text><text class="ggpbi-text" x="421.5716626763674" y="312.81528046421664" text-anchor="middle" dy="0.35em" font-size="10" font-family="sans-serif" fill="#333333" role="listitem" tabindex="0" aria-label="Merc 450SE" style="pointer-events: all; cursor: pointer;">Merc 450SE</text><text class="ggpbi-text" x="377.9702654029428" y="329.5593452611218" text-anchor="middle" dy="0.35em" font-size="10" font-family="sans-serif" fill="#333333" role="listitem" tabindex="0" aria-label="Merc 450SL" style="pointer-events: all; cursor: pointer;">Merc 450SL</text><text class="ggpbi-text" x="336.0026150019758" y="377.9158607350097" text-anchor="middle" dy="0.35em" font-size="10" font-family="sans-serif" fill="#333333" role="listitem" tabindex="0" aria-label="Merc 450SLC" style="pointer-events: all; cursor: pointer;">Merc 450SLC</text><text class="ggpbi-text" x="528.2" y="399.3181818181818" text-anchor="middle" dy="0.35em" font-size="10" font-family="sans-serif" fill="#333333" role="listitem" tabindex="0" aria-label="Cadillac Fleetwood" style="pointer-events: all; cursor: pointer;">Cadillac Fleetwood</text><text class="ggpbi-text" x="525.1" y="426.5" text-anchor="middle" dy="0.35em" font-size="10" font-family="sans-serif" fill="#333333" role="listitem" tabindex="0" aria-label="Lincoln Continental" style="pointer-events: all; cursor: pointer;">Lincoln Continental</text><text class="ggpbi-text" x="531.3" y="327.29110251450675" text-anchor="middle" dy="0.35em" font-size="10" font-family="sans-serif" fill="#333333" role="listitem" tabindex="0" aria-label="Chrysler Imperial" style="pointer-events: all; cursor: pointer;">Chrysler Imperial</text><text class="ggpbi-text" x="120.41952767253207" y="30.807543520309444" text-anchor="middle" dy="0.35em" font-size="10" font-family="sans-serif" fill="#333333" role="listitem" tabindex="0" aria-label="Fiat 128" style="pointer-events: all; cursor: pointer;">Fiat 128</text><text class="ggpbi-text" x="40.599207363845586" y="64.30851063829786" text-anchor="middle" dy="0.35em" font-size="10" font-family="sans-serif" fill="#333333" role="listitem" tabindex="0" aria-label="Honda Civic" style="pointer-events: all; cursor: pointer;">Honda Civic</text><text class="ggpbi-text" x="70.61710559959091" y="6.5" text-anchor="middle" dy="0.35em" font-size="10" font-family="sans-serif" fill="#333333" role="listitem" tabindex="0" aria-label="Toyota Corolla" style="pointer-events: all; cursor: pointer;">Toyota Corolla</text><text class="ggpbi-text" x="117.47482054740706" y="242.94401431334617" text-anchor="middle" dy="0.35em" font-size="10" font-family="sans-serif" fill="#333333" role="listitem" tabindex="0" aria-label="Toyota Corona" style="pointer-events: all; cursor: pointer;">Toyota Corona</text><text class="ggpbi-text" x="247.77725708700405" y="350.5179156673114" text-anchor="middle" dy="0.35em" font-size="10" font-family="sans-serif" fill="#333333" role="listitem" tabindex="0" aria-label="Dodge Challenger" style="pointer-events: all; cursor: pointer;">Dodge Challenger</text><text class="ggpbi-text" x="288.92909276864793" y="397.9158607350097" text-anchor="middle" dy="0.35em" font-size="10" font-family="sans-serif" fill="#333333" role="listitem" tabindex="0" aria-label="AMC Javelin" style="pointer-events: all; cursor: pointer;">AMC Javelin</text><text class="ggpbi-text" x="413.18931452081534" y="364.74177949709866" text-anchor="middle" dy="0.35em" font-size="10" font-family="sans-serif" fill="#333333" role="listitem" tabindex="0" aria-label="Camaro Z28" style="pointer-events: all; cursor: pointer;">Camaro Z28</text><text class="ggpbi-text" x="344.87153948071875" y="200.91392649903287" text-anchor="middle" dy="0.35em" font-size="10" font-family="sans-serif" fill="#333333" role="listitem" tabindex="0" aria-label="Pontiac Firebird" style="pointer-events: all; cursor: pointer;">Pontiac Firebird</text><text class="ggpbi-text" x="84.261604797657" y="116.2350096711798" text-anchor="middle" dy="0.35em" font-size="10" font-family="sans-serif" fill="#333333" role="listitem" tabindex="0" aria-label="Fiat X1-9" style="pointer-events: all; cursor: pointer;">Fiat X1-9</text><text class="ggpbi-text" x="112.23282815369242" y="166.0106382978723" text-anchor="middle" dy="0.35em" font-size="10" font-family="sans-serif" fill="#333333" role="listitem" tabindex="0" aria-label="Porsche 914-2" style="pointer-events: all; cursor: pointer;">Porsche 914-2</text><text class="ggpbi-text" x="40.2" y="92.30851063829786" text-anchor="middle" dy="0.35em" font-size="10" font-family="sans-serif" fill="#333333" role="listitem" tabindex="0" aria-label="Lotus Europa" style="pointer-events: all; cursor: pointer;">Lotus Europa</text><text class="ggpbi-text" x="194.37116989377282" y="322.8655705996131" text-anchor="middle" dy="0.35em" font-size="10" font-family="sans-serif" fill="#333333" role="listitem" tabindex="0" aria-label="Ford Pantera L" style="pointer-events: all; cursor: pointer;">Ford Pantera L</text><text class="ggpbi-text" x="198.19317310150856" y="302.5386847195358" text-anchor="middle" dy="0.35em" font-size="10" font-family="sans-serif" fill="#333333" role="listitem" tabindex="0" aria-label="Ferrari Dino" style="pointer-events: all; cursor: pointer;">Ferrari Dino</text><text class="ggpbi-text" x="251.98323668603712" y="368.0854574468085" text-anchor="middle" dy="0.35em" font-size="10" font-family="sans-serif" fill="#333333" role="listitem" tabindex="0" aria-label="Maserati Bora" style="pointer-events: all; cursor: pointer;">Maserati Bora</text><text class="ggpbi-text" x="199.55762302131515" y="139.0628626692456" text-anchor="middle" dy="0.35em" font-size="10" font-family="sans-serif" fill="#333333" role="listitem" tabindex="0" aria-label="Volvo 142E" style="pointer-events: all; cursor: pointer;">Volvo 142E</text></g></g><g class="ggpbi-axis-x" transform="translate(0,433)" fill="none" font-size="10" font-family="sans-serif" text-anchor="middle"><path class="domain" stroke="currentColor" d="M0.5,0.5H587.5" style="display: none;"></path><g class="tick" opacity="1" transform="translate(93.63052927639993,0)"><line stroke="currentColor" y2="2.75" style="stroke: rgb(92, 92, 92);"></line><text fill="currentColor" y="5.75" dy="0.71em" style="font-size: 8.8px; fill: rgb(112, 112, 112);">2</text></g><g class="tick" opacity="1" transform="translate(230.07552125706053,0)"><line stroke="currentColor" y2="2.75" style="stroke: rgb(92, 92, 92);"></line><text fill="currentColor" y="5.75" dy="0.71em" style="font-size: 8.8px; fill: rgb(112, 112, 112);">3</text></g><g class="tick" opacity="1" transform="translate(366.5205132377211,0)"><line stroke="currentColor" y2="2.75" style="stroke: rgb(92, 92, 92);"></line><text fill="currentColor" y="5.75" dy="0.71em" style="font-size: 8.8px; fill: rgb(112, 112, 112);">4</text></g><g class="tick" opacity="1" transform="translate(502.96550521838174,0)"><line stroke="currentColor" y2="2.75" style="stroke: rgb(92, 92, 92);"></line><text fill="currentColor" y="5.75" dy="0.71em" style="font-size: 8.8px; fill: rgb(112, 112, 112);">5</text></g></g><g class="ggpbi-axis-y" fill="none" font-size="10" font-family="sans-serif" text-anchor="end"><path class="domain" stroke="currentColor" d="M0.5,433.5V0.5" style="display: none;"></path><g class="tick" opacity="1" transform="translate(0,420.5183752417795)"><line stroke="currentColor" x2="-2.75" style="stroke: rgb(92, 92, 92);"></line><text fill="currentColor" x="-5.75" dy="0.32em" style="font-size: 8.8px; fill: rgb(112, 112, 112);">10</text></g><g class="tick" opacity="1" transform="translate(0,336.7659574468085)"><line stroke="currentColor" x2="-2.75" style="stroke: rgb(92, 92, 92);"></line><text fill="currentColor" x="-5.75" dy="0.32em" style="font-size: 8.8px; fill: rgb(112, 112, 112);">15</text></g><g class="tick" opacity="1" transform="translate(0,253.0135396518375)"><line stroke="currentColor" x2="-2.75" style="stroke: rgb(92, 92, 92);"></line><text fill="currentColor" x="-5.75" dy="0.32em" style="font-size: 8.8px; fill: rgb(112, 112, 112);">20</text></g><g class="tick" opacity="1" transform="translate(0,169.26112185686648)"><line stroke="currentColor" x2="-2.75" style="stroke: rgb(92, 92, 92);"></line><text fill="currentColor" x="-5.75" dy="0.32em" style="font-size: 8.8px; fill: rgb(112, 112, 112);">25</text></g><g class="tick" opacity="1" transform="translate(0,85.5087040618955)"><line stroke="currentColor" x2="-2.75" style="stroke: rgb(92, 92, 92);"></line><text fill="currentColor" x="-5.75" dy="0.32em" style="font-size: 8.8px; fill: rgb(112, 112, 112);">30</text></g><g class="tick" opacity="1" transform="translate(0,1.7562862669244725)"><line stroke="currentColor" x2="-2.75" style="stroke: rgb(92, 92, 92);"></line><text fill="currentColor" x="-5.75" dy="0.32em" style="font-size: 8.8px; fill: rgb(112, 112, 112);">35</text></g></g></g></svg>
